<?xml version="1.0" encoding="utf-8"?>
<!-- Generator: Adobe Illustrator 21.0.0, SVG Export Plug-In . SVG Version: 6.00 Build 0)  -->
<svg version="1.1" id="Layer_1" xmlns="http://www.w3.org/2000/svg" xmlns:xlink="http://www.w3.org/1999/xlink" x="0px" y="0px"
	 viewBox="0 0 225 232.7" style="enable-background:new 0 0 225 232.7;" xml:space="preserve">
<style type="text/css">
	.st0{fill:#F5F2EC;}
	.st1{fill:#154282;}
	.st2{fill:none;stroke:#FFFFFF;stroke-width:0.764;stroke-linecap:round;stroke-linejoin:round;stroke-miterlimit:10;}
	.st3{fill:#9A9FB2;}
	.st4{fill:#FFFFFF;}
	.st5{fill:#EF6931;}
	.st6{fill:#C7CAD8;}
	.st7{fill:#777D15;}
	.st8{fill:#EFAD1A;}
	.st9{fill:#453F3F;}
	.st10{fill:#1D3570;}
	.st11{fill:#FFC2B0;}
	.st12{fill:#323441;}
	.st13{fill:#028FCC;}
	.st14{fill:#5BB249;}
	.st15{fill:#3061C3;}
	.st16{fill:#EF6E43;}
	.st17{fill:#3B47BC;}
	.st18{fill:#495AD6;}
	.st19{fill:#B2C1F9;}
	.st20{fill:#281616;}
	.st21{fill:#E5918F;}
	.st22{fill:none;stroke:#FFFFFF;stroke-width:0.25;stroke-miterlimit:10;}
	.st23{opacity:0.5;}
	.st24{fill:#CC6362;}
	.st25{fill:#193091;}
	.st26{fill:#7E89FD;stroke:#DEE3FC;stroke-miterlimit:10;}
	.st27{fill:#DEE3FC;}
	.st28{fill:#7E89FD;}
	.st29{fill:#375F84;}
	.st30{fill:#467CDB;}
</style>
<g>
	<g>
		<g>
			<g>
				<g>
					<path class="st0" d="M155.1,185.9h-51.6c-4.7,0-8.3-3.5-8.3-8.1V63.1c0-4.6,3.6-8.1,8.3-8.1h51.6c4.7,0,8.3,3.5,8.3,8.1v114.7
						C163.4,182.3,159.7,185.9,155.1,185.9z"/>
					<g>
						<path class="st1" d="M154.5,58.6c2.9,0,5.3,2.2,5.3,5.2v113.4c0,2.8-2.3,5.2-5.3,5.2h-50.4c-2.9,0-5.3-2.2-5.3-5.2V63.7
							c0-2.8,2.3-5.2,5.3-5.2L154.5,58.6 M154.5,55h-50.4c-4.9,0-8.9,4-8.9,8.7v113.4c0,4.8,4,8.7,8.9,8.7h50.4c4.9,0,8.9-4,8.9-8.7
							V63.7C163.4,59,159.4,55,154.5,55L154.5,55z"/>
					</g>
					<g>
						<path class="st1" d="M144.4,55.3H114v2.1c0,2.2,1.9,4.2,4.2,4.2h22.1c2.3,0,4.2-1.8,4.2-4.2v-2.1H144.4z"/>
					</g>
					<line class="st2" x1="123.6" y1="57.9" x2="135.3" y2="57.9"/>
				</g>
			</g>
		</g>
	</g>
	<g>
		<g>
			<g>
				<path class="st3" d="M150.6,121.2h-42.2c-3.1,0-5.6-2.5-5.6-5.6v-11.2c0-3.1,2.5-5.6,5.6-5.6h42.2c3.1,0,5.6,2.5,5.6,5.6v11.2
					C156.1,118.7,153.6,121.2,150.6,121.2z"/>
			</g>
			<g>
				<path class="st4" d="M149.3,120h-42.2c-3.1,0-5.6-2.5-5.6-5.6v-11.2c0-3.1,2.5-5.6,5.6-5.6h42.2c3.1,0,5.6,2.5,5.6,5.6v11.2
					C154.9,117.5,152.4,120,149.3,120z"/>
			</g>
			<g>
				<g>
					<path class="st5" d="M150.8,104.5h-27.4c-0.5,0-1-0.4-1-1l0,0c0-0.5,0.4-1,1-1h27.4c0.5,0,1,0.4,1,1l0,0
						C151.8,104.1,151.3,104.5,150.8,104.5z"/>
				</g>
				<g>
					<g>
						<path class="st6" d="M134.6,108.7h-11.4c-0.4,0-0.8-0.4-0.8-0.8l0,0c0-0.4,0.4-0.8,0.8-0.8h11.4c0.4,0,0.8,0.4,0.8,0.8l0,0
							C135.4,108.4,135,108.7,134.6,108.7z"/>
					</g>
					<g>
						<path class="st6" d="M134.6,115.7h-11.4c-0.4,0-0.8-0.4-0.8-0.8l0,0c0-0.4,0.4-0.8,0.8-0.8h11.4c0.4,0,0.8,0.4,0.8,0.8l0,0
							C135.4,115.3,135,115.7,134.6,115.7z"/>
					</g>
					<g>
						<path class="st6" d="M134.6,112.2h-11.4c-0.4,0-0.8-0.4-0.8-0.8l0,0c0-0.4,0.4-0.8,0.8-0.8h11.4c0.4,0,0.8,0.4,0.8,0.8l0,0
							C135.4,111.8,135,112.2,134.6,112.2z"/>
					</g>
				</g>
				<g>
					<g>
						<path class="st6" d="M151,108.7h-11.4c-0.4,0-0.8-0.4-0.8-0.8l0,0c0-0.4,0.4-0.8,0.8-0.8H151c0.4,0,0.8,0.4,0.8,0.8l0,0
							C151.8,108.4,151.4,108.7,151,108.7z"/>
					</g>
					<g>
						<path class="st6" d="M151,115.7h-11.4c-0.4,0-0.8-0.4-0.8-0.8l0,0c0-0.4,0.4-0.8,0.8-0.8H151c0.4,0,0.8,0.4,0.8,0.8l0,0
							C151.8,115.3,151.4,115.7,151,115.7z"/>
					</g>
					<g>
						<path class="st6" d="M151,112.2h-11.4c-0.4,0-0.8-0.4-0.8-0.8l0,0c0-0.4,0.4-0.8,0.8-0.8H151c0.4,0,0.8,0.4,0.8,0.8l0,0
							C151.8,111.8,151.4,112.2,151,112.2z"/>
					</g>
				</g>
			</g>
			<g>
				<g>
					<g>
						<path class="st5" d="M112.1,116c-3.9,0-7.2-3.2-7.2-7.2c0-3.9,3.2-7.2,7.2-7.2s7.2,3.2,7.2,7.2C119.2,112.8,116,116,112.1,116
							z M112.1,102.7c-3.4,0-6.2,2.8-6.2,6.2c0,3.4,2.8,6.2,6.2,6.2s6.2-2.8,6.2-6.2C118.3,105.4,115.5,102.7,112.1,102.7z"/>
					</g>
				</g>
				<g>
					<g>
						<path class="st5" d="M112.1,109.3c-0.1,0-0.2,0-0.3-0.1c-0.1-0.1-0.2-0.2-0.2-0.4v-4.7c0-0.3,0.2-0.5,0.5-0.5s0.5,0.2,0.5,0.5
							v4.2l3.5-0.4c0.3,0,0.5,0.2,0.5,0.4c0,0.3-0.2,0.5-0.4,0.5L112.1,109.3L112.1,109.3z"/>
					</g>
				</g>
			</g>
		</g>
		<g>
			<g>
				<path class="st3" d="M150.6,93.6h-42.2c-3.1,0-5.6-2.5-5.6-5.6V76.8c0-3.1,2.5-5.6,5.6-5.6h42.2c3.1,0,5.6,2.5,5.6,5.6V88
					C156.1,91.1,153.6,93.6,150.6,93.6z"/>
			</g>
			<g>
				<path class="st4" d="M149.3,92.3h-42.2c-3.1,0-5.6-2.5-5.6-5.6V75.6c0-3.1,2.5-5.6,5.6-5.6h42.2c3.1,0,5.6,2.5,5.6,5.6v11.2
					C154.9,89.9,152.4,92.3,149.3,92.3z"/>
			</g>
			<g>
				<path class="st7" d="M116.5,88h-8.1c-1.4,0-2.5-1.1-2.5-2.5v-8.1c0-1.4,1.1-2.5,2.5-2.5h8.1c1.4,0,2.5,1.1,2.5,2.5v8.1
					C119,86.9,117.9,88,116.5,88z"/>
			</g>
			<g>
				<g>
					<path class="st4" d="M110.2,85.1L110.2,85.1c-0.3,0-0.5-0.2-0.5-0.3l-1.3-2.4c-0.2-0.3,0-0.7,0.3-0.8c0.3-0.2,0.7,0,0.8,0.3
						l0.9,1.7l5.9-5.3c0.3-0.2,0.7-0.2,0.9,0.1c0.2,0.3,0.2,0.7-0.1,0.9l-6.5,5.8C110.5,85,110.4,85.1,110.2,85.1z"/>
				</g>
			</g>
			<g>
				<g>
					<path class="st7" d="M150.8,76.9h-27.4c-0.5,0-1-0.4-1-1l0,0c0-0.5,0.4-1,1-1h27.4c0.5,0,1,0.4,1,1l0,0
						C151.8,76.4,151.3,76.9,150.8,76.9z"/>
				</g>
				<g>
					<g>
						<path class="st6" d="M134.6,81.1h-11.4c-0.4,0-0.8-0.4-0.8-0.8l0,0c0-0.4,0.4-0.8,0.8-0.8h11.4c0.4,0,0.8,0.4,0.8,0.8l0,0
							C135.4,80.7,135,81.1,134.6,81.1z"/>
					</g>
					<g>
						<path class="st6" d="M134.6,88h-11.4c-0.4,0-0.8-0.4-0.8-0.8l0,0c0-0.4,0.4-0.8,0.8-0.8h11.4c0.4,0,0.8,0.4,0.8,0.8l0,0
							C135.4,87.7,135,88,134.6,88z"/>
					</g>
					<g>
						<path class="st6" d="M134.6,84.5h-11.4c-0.4,0-0.8-0.4-0.8-0.8l0,0c0-0.4,0.4-0.8,0.8-0.8h11.4c0.4,0,0.8,0.4,0.8,0.8l0,0
							C135.4,84.2,135,84.5,134.6,84.5z"/>
					</g>
				</g>
				<g>
					<g>
						<path class="st6" d="M151,81.1h-11.4c-0.4,0-0.8-0.4-0.8-0.8l0,0c0-0.4,0.4-0.8,0.8-0.8H151c0.4,0,0.8,0.4,0.8,0.8l0,0
							C151.8,80.7,151.4,81.1,151,81.1z"/>
					</g>
					<g>
						<path class="st6" d="M151,88h-11.4c-0.4,0-0.8-0.4-0.8-0.8l0,0c0-0.4,0.4-0.8,0.8-0.8H151c0.4,0,0.8,0.4,0.8,0.8l0,0
							C151.8,87.7,151.4,88,151,88z"/>
					</g>
					<g>
						<path class="st6" d="M151,84.5h-11.4c-0.4,0-0.8-0.4-0.8-0.8l0,0c0-0.4,0.4-0.8,0.8-0.8H151c0.4,0,0.8,0.4,0.8,0.8l0,0
							C151.8,84.2,151.4,84.5,151,84.5z"/>
					</g>
				</g>
			</g>
		</g>
		<g>
			<g>
				<path class="st3" d="M150.6,149.5h-42.2c-3.1,0-5.6-2.5-5.6-5.6v-11.2c0-3.1,2.5-5.6,5.6-5.6h42.2c3.1,0,5.6,2.5,5.6,5.6V144
					C156.1,147,153.6,149.5,150.6,149.5z"/>
			</g>
			<g>
				<path class="st4" d="M149.3,148.3h-42.2c-3.1,0-5.6-2.5-5.6-5.6v-11.2c0-3.1,2.5-5.6,5.6-5.6h42.2c3.1,0,5.6,2.5,5.6,5.6v11.2
					C154.9,145.8,152.4,148.3,149.3,148.3z"/>
			</g>
			<g>
				<g>
					<path class="st6" d="M116.2,137.4h-9.6c-0.4,0-0.7-0.3-0.7-0.7l0,0c0-0.4,0.3-0.7,0.7-0.7h9.6c0.4,0,0.7,0.3,0.7,0.7l0,0
						C116.9,137.1,116.6,137.4,116.2,137.4z"/>
				</g>
				<g>
					<path class="st6" d="M116.2,143.2h-9.6c-0.4,0-0.7-0.3-0.7-0.7l0,0c0-0.4,0.3-0.7,0.7-0.7h9.6c0.4,0,0.7,0.3,0.7,0.7l0,0
						C116.9,142.9,116.6,143.2,116.2,143.2z"/>
				</g>
				<g>
					<path class="st6" d="M116.2,140.3h-9.6c-0.4,0-0.7-0.3-0.7-0.7l0,0c0-0.4,0.3-0.7,0.7-0.7h9.6c0.4,0,0.7,0.3,0.7,0.7l0,0
						C116.9,140,116.6,140.3,116.2,140.3z"/>
				</g>
			</g>
			<g>
				<g>
					<path class="st6" d="M129.6,137.4H120c-0.4,0-0.7-0.3-0.7-0.7l0,0c0-0.4,0.3-0.7,0.7-0.7h9.6c0.4,0,0.7,0.3,0.7,0.7l0,0
						C130.2,137.1,129.9,137.4,129.6,137.4z"/>
				</g>
				<g>
					<path class="st6" d="M129.6,143.2H120c-0.4,0-0.7-0.3-0.7-0.7l0,0c0-0.4,0.3-0.7,0.7-0.7h9.6c0.4,0,0.7,0.3,0.7,0.7l0,0
						C130.2,142.9,129.9,143.2,129.6,143.2z"/>
				</g>
				<g>
					<path class="st6" d="M129.6,140.3H120c-0.4,0-0.7-0.3-0.7-0.7l0,0c0-0.4,0.3-0.7,0.7-0.7h9.6c0.4,0,0.7,0.3,0.7,0.7l0,0
						C130.2,140,129.9,140.3,129.6,140.3z"/>
				</g>
			</g>
			<g>
				<g>
					<g>
						<path class="st8" d="M133.3,138.5c0,0.4,0.1,0.8,0.3,1.1c0.1,0.2,0.2,0.3,0.3,0.5l1.5,2.7l1-1.8c0.3-0.5,0.5-0.9,0.8-1.4
							c0.2-0.3,0.3-0.7,0.3-1.1c0-1.2-1-2.1-2.2-2.1C134.1,136.6,133.3,137.5,133.3,138.5z M134.5,138.3c0-0.5,0.4-0.9,0.9-0.9
							s0.9,0.4,0.9,0.9s-0.4,0.9-0.9,0.9C134.8,139.2,134.5,138.8,134.5,138.3z"/>
					</g>
				</g>
				<g>
					<g>
						<g>
							<path class="st5" d="M139.4,137.9c0-0.1,0-0.1,0-0.2c0.1-0.2,0.2-0.4,0.3-0.6c0.1-0.1,0.2-0.2,0.4-0.3s0.4-0.1,0.6,0.1
								c0.3,0.3,0.5,0.6,0.8,0.9c0.2,0.2,0.1,0.5-0.1,0.6c-0.1,0.1-0.3,0.2-0.4,0.4c0,0,0,0-0.1,0c0.3,0.9,0.9,1.7,1.8,2.2
								c0.1-0.1,0.2-0.2,0.3-0.3c0.1,0,0.1-0.1,0.2-0.1c0.2-0.1,0.4-0.1,0.5,0c0.1,0,0.1,0.1,0.1,0.1c0.2,0.3,0.5,0.6,0.7,0.9
								c0.1,0.1,0.1,0.2,0.1,0.3v0.1c0,0.1-0.1,0.2-0.1,0.2c-0.1,0.1-0.3,0.3-0.5,0.3c-0.2,0.1-0.4,0.2-0.7,0.1
								c-0.2,0-0.3,0-0.5-0.1c-0.4-0.1-0.7-0.3-1.1-0.5c-0.3-0.2-0.6-0.5-0.9-0.8c-0.4-0.4-0.7-0.8-1-1.2c-0.2-0.3-0.4-0.7-0.6-1.1
								c-0.1-0.2-0.1-0.4-0.1-0.6c0-0.1,0-0.2,0-0.3C139.3,138.1,139.3,138,139.4,137.9z"/>
						</g>
					</g>
				</g>
				<g>
					<g>
						<g>
							<g>
								<path class="st7" d="M145.7,139.6c0,1.7,1.4,3.1,3.1,3.1c1.7,0,3.1-1.4,3.1-3.1c0-1.7-1.4-3.1-3.1-3.1
									C147.1,136.5,145.7,137.9,145.7,139.6z M147.5,140.8c-0.1-0.3-0.2-0.7-0.2-1.1h1.4v1.1H147.5z M148.2,142.5
									c-0.8-0.2-1.5-0.7-1.9-1.4h1c0.1,0.4,0.3,0.7,0.5,1C147.9,142.2,148.1,142.3,148.2,142.5z M148.7,141v1.5
									c-0.1-0.1-0.4-0.3-0.7-0.6c-0.2-0.2-0.4-0.5-0.5-0.8L148.7,141L148.7,141z M147.6,138.1c0.3-0.7,0.8-1.2,1-1.3h0.1v1.3
									H147.6z M146.4,138.1c0.4-0.6,1-1.1,1.8-1.3c-0.1,0.2-0.3,0.3-0.4,0.5c-0.2,0.2-0.3,0.5-0.4,0.8H146.4z M147.3,139.4
									c0-0.4,0.1-0.7,0.2-1.1h1.2v1.1H147.3z M146,139.4c0-0.4,0.1-0.8,0.3-1.1h1c-0.1,0.4-0.2,0.7-0.2,1.1H146z M147.1,139.7
									c0,0.4,0.1,0.8,0.2,1.1h-1c-0.2-0.3-0.2-0.7-0.2-1.1H147.1z M150.6,139.7h1.1c0,0.4-0.1,0.8-0.2,1.1h-1
									C150.6,140.5,150.6,140.1,150.6,139.7z M149,138.1v-1.3h0.1c0.1,0.1,0.4,0.3,0.6,0.7c0.1,0.2,0.3,0.4,0.4,0.6H149z
									 M150.1,138.3c0.1,0.4,0.2,0.7,0.2,1.1H149v-1.1H150.1z M150.3,138.1c-0.1-0.3-0.3-0.5-0.4-0.8c-0.1-0.2-0.3-0.3-0.4-0.5
									c0.7,0.2,1.4,0.6,1.8,1.3H150.3z M150.4,139.7c0,0.4-0.1,0.8-0.2,1.1H149v-1.1H150.4z M150.6,139.4c0-0.4-0.1-0.7-0.2-1.1h1
									c0.2,0.3,0.3,0.7,0.3,1.1H150.6z M151.4,141c-0.4,0.7-1.1,1.2-1.9,1.4c0.1-0.1,0.3-0.3,0.4-0.4c0.2-0.3,0.4-0.6,0.5-1H151.4
									z M150.1,141c-0.3,0.9-0.9,1.3-1.1,1.5V141H150.1z"/>
							</g>
						</g>
					</g>
				</g>
			</g>
			<g>
				<path class="st9" d="M109.4,131c0,1.4-0.9,2.2-2.2,2.2c-0.5,0-0.9-0.1-1.2-0.3l0.5-0.9c0.2,0.2,0.5,0.2,0.7,0.2
					c0.4,0,0.8-0.2,0.9-0.7c-0.2,0.1-0.4,0.2-0.8,0.2c-0.7,0-1.3-0.5-1.3-1.3s0.7-1.4,1.6-1.4C108.7,129.1,109.4,129.7,109.4,131z
					 M108.1,130.4c0-0.2-0.2-0.4-0.4-0.4c-0.2,0-0.4,0.2-0.4,0.4s0.2,0.4,0.4,0.4C107.9,130.8,108.1,130.7,108.1,130.4z"/>
				<path class="st9" d="M109.7,130.7c0-0.4,0.3-0.7,0.7-0.7c0.4,0,0.7,0.3,0.7,0.7s-0.3,0.7-0.7,0.7S109.7,131.1,109.7,130.7z
					 M109.7,132.4c0-0.4,0.3-0.7,0.7-0.7c0.4,0,0.7,0.3,0.7,0.7s-0.3,0.7-0.7,0.7C110,133.2,109.7,132.9,109.7,132.4z"/>
				<path class="st9" d="M114.6,131.9c0,0.7-0.5,1.3-1.8,1.3c-0.5,0-1.1-0.1-1.6-0.4l0.4-1c0.3,0.2,0.7,0.3,1.1,0.3
					c0.3,0,0.5-0.1,0.5-0.3s-0.1-0.3-0.5-0.3h-0.5v-0.8l0.6-0.6h-1.4v-1h2.9v0.8l-0.7,0.7C114.3,130.9,114.6,131.3,114.6,131.9z"/>
				<path class="st9" d="M114.9,131.2c0-1.3,0.7-2.1,1.8-2.1c1,0,1.8,0.8,1.8,2.1s-0.7,2.1-1.8,2.1
					C115.7,133.2,114.9,132.5,114.9,131.2z M117.2,131.2c0-0.8-0.2-1-0.4-1c-0.3,0-0.4,0.2-0.4,1s0.2,1,0.4,1
					C117,132.1,117.2,131.9,117.2,131.2z"/>
				<path class="st9" d="M123.7,131.5v1.7h-1.2v-0.4c-0.1,0.3-0.4,0.5-0.9,0.5c-0.8,0-1.1-0.4-1.1-1s0.4-0.9,1.4-0.9h0.5
					c0-0.2-0.2-0.4-0.6-0.4c-0.3,0-0.6,0.1-0.8,0.2l-0.4-0.8c0.4-0.2,0.9-0.3,1.4-0.3C123.1,130,123.7,130.4,123.7,131.5z
					 M122.4,132.1v-0.2h-0.3c-0.3,0-0.4,0.1-0.4,0.3c0,0.1,0.1,0.2,0.3,0.2C122.2,132.4,122.3,132.3,122.4,132.1z"/>
				<path class="st9" d="M129.5,131.4v1.8h-1.3v-1.5c0-0.4-0.1-0.5-0.3-0.5s-0.4,0.2-0.4,0.6v1.5h-1.3v-1.5c0-0.4-0.1-0.5-0.3-0.5
					c-0.2,0-0.4,0.2-0.4,0.6v1.5h-1.3V130h1.2v0.3c0.2-0.2,0.5-0.3,0.9-0.3s0.7,0.1,1,0.5c0.2-0.3,0.6-0.5,1-0.5
					C129,130,129.5,130.4,129.5,131.4z"/>
			</g>
			<g>
				<path class="st8" d="M151.2,132.4h-17.1c-0.4,0-0.8-0.4-0.8-0.8l0,0c0-0.4,0.4-0.8,0.8-0.8h17.1c0.4,0,0.8,0.4,0.8,0.8l0,0
					C152,132.1,151.6,132.4,151.2,132.4z"/>
			</g>
		</g>
	</g>
	<g>
		<g>
			<path class="st8" d="M123.3,159.9H102c-0.8,0-1.5-0.7-1.5-1.5v-2.1c0-0.8,0.7-1.5,1.5-1.5h21.3c0.8,0,1.5,0.7,1.5,1.5v2.1
				C124.8,159.2,124.1,159.9,123.3,159.9z"/>
		</g>
		<g>
			<path class="st7" d="M123.3,171H102c-0.8,0-1.5-0.7-1.5-1.5v-2.1c0-0.8,0.7-1.5,1.5-1.5h21.3c0.8,0,1.5,0.7,1.5,1.5v2.1
				C124.8,170.4,124.1,171,123.3,171z"/>
		</g>
		<g>
			<path class="st5" d="M156.6,159.9h-21.3c-0.8,0-1.5-0.7-1.5-1.5v-2.1c0-0.8,0.7-1.5,1.5-1.5h21.3c0.8,0,1.5,0.7,1.5,1.5v2.1
				C158.1,159.2,157.4,159.9,156.6,159.9z"/>
		</g>
		<g>
			<path class="st6" d="M156.6,171h-21.3c-0.8,0-1.5-0.7-1.5-1.5v-2.1c0-0.8,0.7-1.5,1.5-1.5h21.3c0.8,0,1.5,0.7,1.5,1.5v2.1
				C158.1,170.4,157.4,171,156.6,171z"/>
		</g>
	</g>
	<g id="Group_1_1_">
		<g id="Group_2_1_">
			<g id="Group_4_1_">
				<g id="Shape_717">
					<g>
						<g>
							<path class="st10" d="M43.5,95.7c-4.9,3.1-13.3-2.8-10.8,6.7s3.6,8.1,7.1,4.7s5.5-7.7,5.5-7.7S48.4,92.7,43.5,95.7z"/>
						</g>
					</g>
				</g>
				<g id="Shape_719_copy">
					<g>
						<polygon class="st11" points="27.9,183 23,182.1 22.9,185.8 29.7,185.1 						"/>
					</g>
				</g>
				<g id="Shape_716">
					<g>
						<g>
							<polygon class="st12" points="49.2,143.5 30.5,144 26.6,160 21.3,183.5 32.9,183.5 37.7,152 40.3,161.6 37.4,183.8 49,182.8 
								51.4,155.6 							"/>
						</g>
					</g>
				</g>
				<g id="Shape_719">
					<g>
						<polygon class="st11" points="45.1,183 40,183.3 40.9,186.9 48.3,185.3 						"/>
					</g>
				</g>
				<g id="Shape_712">
					<g>
						<g>
							<path class="st13" d="M63.5,105.8l-4.5-1.3l-6,8.3H36.9c-13-1.2-18.4,12.9-18.4,12.9c-2.4,5.4,12.1,18.3,12.1,18.3l18.7-0.5
								L46.8,121c-0.1-0.3,0.1-0.5,0.1-0.5l-0.1,0.5c0.2,0.6,1.7,1.5,8.8,2.1C66.3,123.9,63.5,105.8,63.5,105.8z"/>
						</g>
					</g>
				</g>
				<g id="Shape_713">
					<g>
						<path class="st11" d="M45.9,105c-0.4-6-1.8-5.7-1.8-5.7l-5,1L38,106c0,0-0.4-3.3-2.4-2.3s-2.5,1.9,0,3.4c0,0,1.1,3.4-0.5,6.5
							c0,0,3.9,6.8,6.8,0.8v-4.2C41.9,110.2,46.3,111,45.9,105z"/>
					</g>
				</g>
				<g id="Shape_714">
					<g>
						<path class="st11" d="M61.4,96c-1.3-2.2-3.2,5.8-3.2,5.8s0-0.9-2.6-2s3.4,5.9,3.4,5.9l3.4,0.5c0,0,0-2.3,2.1-4.5
							C66.6,99.5,62.8,98.2,61.4,96z"/>
					</g>
				</g>
				<g id="Shape_718">
					<g>
						<path class="st14" d="M36.8,141.8c-4.4,0-8.8,0-13.3,0s-8.9,0-13.3,0c-0.4,0-0.5,0.1-0.5,0.5c0,2.7,0,5.4,0,8.1
							c0,3.8,0,7.7,0,11.5c0,1,0.2,1.2,1.3,1.2c1,0,2.1,0,3.1,0c0.3,0,0.4,0.1,0.4,0.4c0,1.7,0,3.3,0,5c0,0.7,0.4,1.2,1.1,1.2
							s1.4,0,2.2,0s1.1-0.5,1.1-1.2c0-1.7,0-3.3,0-5c0-0.3,0.1-0.4,0.4-0.4c3,0,6,0,9.1,0c0.3,0,0.4,0.1,0.4,0.4c0,1.7,0,3.5,0,5.2
							c0,0.6,0.3,1,0.9,1.1c0.8,0.1,1.6,0.1,2.4,0c0.5,0,0.8-0.5,0.9-1c0-1.7,0-3.4,0-5.1c0-0.4,0.1-0.5,0.5-0.5c1,0,2,0,3,0
							c0.5,0,0.8-0.3,0.8-0.8c0-0.1,0-0.3,0-0.4c0-6.5,0-13.1,0-19.6C37.3,141.9,37.2,141.8,36.8,141.8z M36.3,135.8
							c-1.1-2.3-2.6-4.1-4.7-5.5c-0.4-0.2-0.4-0.4-0.2-0.8c0.5-0.8,1-1.7,1.5-2.5c0.2-0.4,0.2-0.7-0.1-0.8c-0.4-0.1-0.6,0-0.7,0.3
							c-0.5,0.9-1.1,1.8-1.5,2.7c-0.2,0.3-0.3,0.3-0.6,0.2c-4.1-1.9-8.3-1.9-12.4-0.2c-0.3,0.1-0.4,0-0.5-0.2
							c-0.5-0.8-1-1.7-1.5-2.5c-0.2-0.3-0.4-0.4-0.7-0.2c-0.3,0.2-0.2,0.4-0.1,0.7c0,0.1,0.1,0.2,0.1,0.2c0.5,0.8,0.9,1.5,1.3,2.3
							c0.1,0.2,0.2,0.4-0.1,0.5c-0.1,0-0.2,0.1-0.3,0.2c-3.6,2.4-5.7,5.6-6,9.9c0,0.6,0,0.6,0.5,0.6c4.4,0,8.8,0,13.2,0
							s8.9,0,13.3,0c0.5,0,0.6,0,0.5-0.6C37.3,138.6,36.9,137.2,36.3,135.8z M7.3,141.9c-0.4,0-0.8,0-1.2,0c-1,0-1.3,0.3-1.3,1.3
							c0,4.1,0,8.1,0,12.1c0,0.1,0,0.3,0,0.4c0,0.6,0.3,0.9,0.9,0.9s1.1,0,1.7,0c0.7,0,1-0.4,1-1.1c0-2.1,0-4.2,0-6.3s0-4.2,0-6.3
							C8.4,142.2,8,141.9,7.3,141.9z M41.9,142.9c0-0.6-0.2-0.9-0.8-1c-0.5-0.1-0.9-0.1-1.3,0c-0.7,0-1,0.4-1,1.1c0,4,0,8,0,12
							c0,0.4,0.2,0.7,0.6,0.8c0.5,0.2,1.1,0.1,1.6,0.1c0.7,0,1-0.4,1-1.1c0-1.9,0-3.9,0-5.9C41.9,146.9,41.9,144.9,41.9,142.9z"/>
					</g>
				</g>
				<g id="Shape_715">
					<g>
						<path class="st11" d="M31.8,128.3c-4.6-5.6-7.5-0.2-7.5-0.2c3.8-0.3,3.1,5.9,3.1,5.9S36.4,133.9,31.8,128.3z"/>
					</g>
				</g>
				<g id="Ellipse_48">
					<g>
						<ellipse class="st4" cx="19.3" cy="136.1" rx="1.5" ry="1.5"/>
					</g>
				</g>
				<g id="Ellipse_48_copy">
					<g>
						<path class="st4" d="M28.6,134.6c-0.8,0-1.5,0.7-1.5,1.5s0.7,1.5,1.5,1.5s1.5-0.7,1.5-1.5C30.1,135.2,29.4,134.6,28.6,134.6z"
							/>
					</g>
				</g>
				<g id="Rectangle_41">
					<g>
						<rect x="11.1" y="168.5" class="st15" width="22.7" height="10.6"/>
					</g>
				</g>
				<g id="Rectangle_42">
					<g>
						<rect x="3.4" y="179.2" class="st16" width="17.9" height="8.5"/>
					</g>
				</g>
				<g id="Ellipse_51_copy_4">
					<g>
						<ellipse class="st16" cx="66.2" cy="136.3" rx="4.3" ry="4.3"/>
					</g>
				</g>
			</g>
		</g>
	</g>
	<g>
		<path class="st11" d="M99.9,154.4l2.6-2.7c0,0,0.1-1.2,0.2-1.5s0.5-1.2,0.7-1.3s0.6,0,0.6,0s0.4-0.1,0.5-0.1
			c0.2,0,0.5,0.1,0.5,0.1s0.4,0,0.6,0s0.2,0,0.2,0s0.6-0.7,0.9-1c0.3-0.2,0.8-0.7,0.9-0.7s0.2,0.2,0.1,0.5c-0.1,0.2-0.5,0.6-0.5,0.6
			l-1.2,1.8c0,0,0.2-0.1,0.3-0.2c0.1-0.1,0.8-0.8,0.9-0.8c0,0,0.4-0.2,0.6,0s-1.3,2-1.5,2.2s-1.6,0.9-1.6,0.9s-1.4,2.5-1.5,2.7
			S99.9,154.4,99.9,154.4z"/>
		<path class="st11" d="M102.4,141.9c0,0-1.5,8.5-2.9,8.7c0,0-5.5,0.2-6.8-6.5c-1.1-5.8,3.2-7.1,5.2-6.6
			C100,138,102.8,138.3,102.4,141.9z"/>
		<path class="st11" d="M97.5,149.3c0,0-0.8,1-1,3.6c0,0-2.3,0.3-4.4-0.8c0,0,1.1-3.6,1.3-7.4"/>
		<path class="st10" d="M95.9,136.1c-3,0.7-2.8,2.5-2.8,2.5c-1.4,0.4-1.7,0.9-1.7,3.5s1,5.7,1.5,6s3.5,0.3,3.7,0.2s1.3-2.5,1-2.9
			c-0.2-0.4,0-2.1,0.7-2.1c0.7-0.1,0.6,1,0.6,1l0.6-0.1l0.4-1.1c4,0.2,5-4.3,5-4.3C104,138.2,99,135.4,95.9,136.1z"/>
		<path class="st11" d="M62.4,193.8l3.1,0.4l-1,3.6l-3.3-0.8c0,0-1.3-1.8,0.7-3.2C62,193.7,62.3,193.7,62.4,193.8z"/>
		<path class="st12" d="M85.2,184.6L80.7,171c0,0-1.4-0.5-2.1,0c0,0-4.7,2.5-4.2,9.7c0.4,5.4,1.5,11.3,2,13.6l-12-0.4
			c0,0-1.5,1.8-0.5,4.1c0,0,15.1,4.1,17.2,4.4c1.7,0.3,3.6,0.5,4.5-0.2C87.3,200.8,85.2,184.6,85.2,184.6z"/>
		<path class="st11" d="M76.6,193.8l3.1,0.4l-1,3.6l-3.3-0.8c0,0-1.3-1.8,0.7-3.2C76.2,193.7,76.5,193.7,76.6,193.8z"/>
		<path class="st13" d="M75.5,195.6c-0.1,0.7,0.5,1.3,0.4,1.5s-2.2,3.6-2.2,3.6s1.5,0.7,1.3,1.6h-3.9c0,0-1-0.9-1-2.2
			c0,0,0.3-1.5,1-2.9s2.3-4.4,2.3-4.4s0.5-0.2,1.3,0c1,0.3,1.9,0.8,1.9,0.8S75.7,193.9,75.5,195.6z"/>
		<path class="st12" d="M107,199.3c-1-3.6-10.1-19-13.2-23.2c-6.3-2.7-13.1-5.1-13.1-5.1c-2.8,0.7-4.2,6.3-2.6,10
			c1.1,2.6,8,9,12.2,12.9H78.6c0,0-1.4,2.1-0.1,4c0,0,19.5,4.4,21.2,4.7s5.5,0,5.5,0S107.8,202.3,107,199.3z"/>
		<path class="st13" d="M61.3,195.6c-0.1,0.7,0.5,1.3,0.4,1.5s-2.2,3.6-2.2,3.6s1.5,0.7,1.3,1.6H57c0,0-1-0.9-1-2.2
			c0,0,0.3-1.5,1-2.9s2.3-4.4,2.3-4.4s0.5-0.2,1.3,0c1,0.3,1.9,0.8,1.9,0.8S61.5,193.9,61.3,195.6z"/>
		<path class="st11" d="M121.6,151.7l-6.3,11l-4.5-4.5l-3.7,5.5l1.1,0.5l-0.4,0.3c0,0,8.7,4.2,9.7,3.3s5.9-15,5.9-15L121.6,151.7z"
			/>
		<path class="st13" d="M111.6,159c0,0-1.2,5-3.6,7.4l-6.1-2.3c0,0-2.8,4.7-5.6,8.4c-1.1,1.4-1.4,3.4-2.7,3.6
			c-0.1,0-0.2-0.1-0.2-0.1c-3.4-1-8.3,0.1-12.4-1.5c-4.5-1.7-3.7-2.6-3.7-2.6s2.7-5,4.3-10.2c0.7-2.3,1.2-4.5,1.5-6.2
			c0.6-3,3-5.3,6-5.7h0.1c3.4-0.4,12.4,0.6,14.2,1.4C105.3,151.9,111.6,159,111.6,159z"/>
		<path class="st13" d="M102,164.1c0,0-2.8,4.7-5.6,8.4c-1.1,1.4-1.4,3.4-2.7,3.6c0.5-0.2,1.4-3.1,1.8-3.7c0.3-0.6,0.8-1.3,2-3.5
			c1.1-2.3,2.6-5.6,2.6-5.6L102,164.1z"/>
		<g>
			<path d="M90.3,193.9c1-0.4,2.1-0.5,3.1-0.3s2.1,0.5,2.9,1.2c-1.1,0.1-2.1,0-3.1-0.1C92.3,194.4,91.4,194.3,90.3,193.9z"/>
		</g>
		<path class="st11" d="M126.3,147.7c-0.1,0-0.7,0.5-1.1,0.8l0.4-0.7c0,0,0.5-0.5,0.6-0.7c0.2-0.3,0.1-0.5-0.1-0.5
			c-0.1,0-0.7,0.4-1,0.7l0.1-0.1c0,0,0.5-0.5,0.6-0.7c0.2-0.3,0.1-0.5-0.1-0.5c-0.1,0-1.2,0.9-1.2,0.9l-0.5,0.7l0.4-0.8
			c0,0,0.2-0.3,0.4-0.5c0.1-0.3,0-0.4,0-0.5c-0.1-0.1-0.8,0.5-1,0.7s-0.8,1.1-0.8,1.2l-0.6,1.3c0-0.4-0.1-1-0.1-1.4
			c-0.1-0.6-0.6-0.7-0.6-0.4s-0.3,1.7-0.2,2.4c0.1,0.7,0.2,1.2,0.2,1.7c0,0.4-0.4,1.3-0.4,1.3s1.7,1.1,2,0.8s0.9-1,1.2-1.5
			c0.4-0.7,0.7-1.5,0.7-1.5l0.5-1.2c0,0,0.5-0.5,0.6-0.7C126.5,147.9,126.4,147.7,126.3,147.7z"/>
	</g>
	<g>
		<g>
			<rect x="189.7" y="177.7" class="st17" width="21.3" height="32"/>
			<rect x="211" y="177.7" class="st18" width="8.2" height="32"/>
			<g>
				<rect x="212.2" y="178.9" class="st19" width="6" height="1"/>
				<rect x="212.2" y="181.1" class="st19" width="6" height="1"/>
				<rect x="212.2" y="183.3" class="st19" width="6" height="1"/>
				<rect x="212.2" y="185.5" class="st19" width="6" height="1"/>
				<rect x="212.2" y="187.7" class="st19" width="6" height="1"/>
				<rect x="212.2" y="189.9" class="st19" width="6" height="1"/>
				<rect x="212.2" y="192.1" class="st19" width="6" height="1"/>
				<rect x="212.2" y="194.3" class="st19" width="6" height="1"/>
				<rect x="212.2" y="196.5" class="st19" width="6" height="1"/>
				<rect x="212.2" y="198.7" class="st19" width="6" height="1"/>
				<rect x="212.2" y="200.9" class="st19" width="6" height="1"/>
				<rect x="212.2" y="203.1" class="st19" width="6" height="1"/>
				<rect x="212.2" y="205.3" class="st19" width="6" height="1"/>
				<rect x="212.2" y="207.5" class="st19" width="6" height="1"/>
			</g>
		</g>
		<g>
			<path class="st20" d="M186.3,209.7h10.8c0,0,0.6-1.9-0.7-4.3c0,0-0.9,0.7-3.5,0.2c0,0-1.1,0.9-1.8,1.3
				C190.3,207.3,186,208.1,186.3,209.7z"/>
			<path class="st12" d="M187,179.2c0.7,4.2,3.9,18.3,5.3,26.6c2.5,0.2,3.8-0.1,4.4-0.2c-0.1-2.9-0.4-9.9-0.3-12.9
				c0-5.2,0.3-12-2-15.7l-7.6,0.6c0,0.4,0.1,0.7,0.1,1C186.9,178.8,187,179,187,179.2z"/>
			<path class="st20" d="M166.7,209.7h10.8c0,0,0.6-1.9-0.7-4.3c0,0-0.9,0.7-3.5,0.2c0,0-1.1,0.9-1.8,1.3
				C170.7,207.3,166.4,208.1,166.7,209.7z"/>
			<path class="st12" d="M173,205.6c2.1,0.5,3.6,0.5,4.3,0.4c0.6-3.4,1.5-10.7,2.3-14.2c1.3-5.4,2.5-12.8,1.6-15.4l-7.5-1.9
				C173.7,174.7,173.1,197.3,173,205.6z"/>
			<path class="st12" d="M202.9,166.8L202.9,166.8c-0.2-1.5-0.3-2.6-0.3-2.6l-8.4,2.1l-7.1,1.6c-2.6,0.6-5.8,1.3-8.6,1.9
				c-3.2,0.7-5.3,3.1-4.6,6.3l0.8,3.8c4.4-0.1,25.2-2.1,27-2.9C203.6,176,204.2,172.4,202.9,166.8z"/>
			<path class="st12" d="M215.4,166.8L215.4,166.8c-0.2-1.5-0.9-3.1-0.9-3.1l-7.8,2.6l-7.1,1.6c-2.6,0.6-5.8,1.3-8.6,1.9
				c-3.2,0.7-5.3,3.1-4.6,6.3l0.8,3.8c4.4-0.1,22.9-0.7,27-2.9C216.1,175.9,216.7,172.4,215.4,166.8z"/>
			<g>
				<path class="st21" d="M191.9,154.8c0,0,3.7-1.7,4.8,0c0.6,0.9,0.2,2.6-1.1,3.4c-1.3,0.7-8.5,3.8-15.2,5.5c0,0-0.3-0.9-0.8-1.9
					c0,0,3-1.3,6.1-3.4C188.7,156.1,191.9,154.8,191.9,154.8L191.9,154.8z"/>
			</g>
			<path class="st11" d="M192.8,143.1l-3.2,12.8c0,0,0.3,3.2,3.6,1.6c3.3-1.6,5.4-11.7,5.4-11.7L192.8,143.1z"/>
			<path class="st13" d="M198.3,150.3c-0.4-0.1-0.8-0.2-1.1-0.3c-0.4-0.1-0.7-0.2-1.1-0.3c-3-1-4.7-2.3-4.7-2.3
				c1-4.1,2.1-6.9,3.1-8.8l0.1-0.1l0.1-0.1c0.5-0.9,1.3-1.7,2.2-2.3c0.1-0.1,0.2-0.1,0.3-0.2l0.4,6.7l0.1,0.7L198.3,150.3z"/>
			<path class="st13" d="M198.3,150.3c-0.4-0.1-0.8-0.2-1.1-0.3c-0.4-0.1-0.7-0.2-1.1-0.3c0.6-4.5,1.2-7.3,1.2-7.3l0.3,0.8
				L198.3,150.3z"/>
			<path class="st13" d="M217.1,138.7c-0.1,2-0.4,5.1-0.7,8.3c-0.1,1-0.2,2-0.3,3c-0.1,0.6-1,3.9-1,4.4c-0.2,2.8-1.5,4.9-0.2,9.1
				c0.3,1,0.4,1.5,0.4,2c0,0.3-0.4,0.6-0.5,0.7c-0.5,0.3-1.6,0.5-2.9,0.7l0,0c-2.5,0.3-6,0.4-8,0.4c-2.8,0-6.9-0.4-7.5-1.1
				c-0.5-0.6,0-1.6,0.2-2.9c1-5.8,0.7-8.8,0.6-13c0-0.1,0-0.2,0-0.3c-0.1-6.5-0.5-12-0.2-14c0.1-0.1,0.2-0.1,0.3-0.2
				c0.4-0.3,0.9-0.6,1.3-0.8c0,0,0.1,0,0.1-0.1c0.1-0.1,0.3-0.1,0.4-0.2c0,0,0.1,0,0.1-0.1c0.9-0.5,2.3-0.9,3.1-1.2
				c0.1,0,0.2-0.1,0.3-0.1c0.7,0,1.5-0.1,2.4,0c0.8,0,1.9,0.1,3.2,0.3l0,0c1.4,0.2,3,0.4,4.2,0.8l0,0c0.2,0.1,1.7,0.6,3.3,2.3
				C216.1,137.2,216.6,137.9,217.1,138.7z"/>
			<path class="st13" d="M214.9,163.6c0.3,1,0.4,1.5,0.4,2c0,0.3-0.4,0.6-0.5,0.7c-0.5,0.3-1.6,0.5-2.9,0.7c0.5-0.1,1.4-0.9,1.4-1.7
				c0-0.5-0.7-4.1-0.5-6.5c0.2-2.3,0.6-6-0.1-9c-0.7-3-1.4-6.8-1.4-6.8l4,2.4c0,0,0.5,0.7,1.1,1.6c-0.1,1-0.2,2-0.3,3
				C216.1,150.7,213.6,159.4,214.9,163.6z"/>
			<g>
				<path class="st10" d="M197.1,121.7c0,0,0.4,4.2,1.8,4.5c1.4,0.3,1.1-1.5,1.1-1.5l-0.2-2L197.1,121.7z"/>
				<path class="st11" d="M203.5,137c-2.7-0.3-1.7-3-1.3-3.6c0.1,0,0.6-0.2,0.6-0.2l0,0c0.1-0.1,0.2-0.2,0.2-0.3
					c0.3-0.7,0.1-2.1,0.1-2.2l0,0v-0.3c0-0.2,0.1-0.3,0.1-0.5l1.4-1.1l3.1-2.4c0,0-0.8,4-0.2,6.6c0,0.2,0.1,0.5,0.4,0.6l0,0
					c0.1,0.1,0.2,0.1,0.3,0.1C209.1,134,208.1,137.5,203.5,137z"/>
				<path class="st11" d="M206,129c0,0,0,2.7-2.9,3.9c0.3-0.7,0.1-2.1,0.1-2.2l1.2-1L206,129z"/>
				<path class="st11" d="M197.7,122.3c0,0,0.6,8.8,3,9.5c0,0,3,0.3,5.2-2.6c0.6-0.8,1.4-1,1.7-2c0.4-1.6,1-4.7,0.3-6.5
					C206.8,118,197.8,115.9,197.7,122.3z"/>
				<path class="st10" d="M207.9,119.2c0-1.6-1.7-2.2-1.7-2.2c-1.6-0.8-4.9-0.4-8.4,0.3c-0.8,0.2-1.8-0.3-2.4,0.1
					c-0.7,0.5,0,2.6,0,2.6c1.3,4,6.2,2.7,7.7,2.2c0.3,1,0.3,2.5,1.2,3.2c0.5,0.4,1.4,0.4,2.2,0.3c0.1,0.2,0.5,0.4,0.6,0.7
					c0.3,0.9,0.2,2.4,0.2,3.5l0.4-0.2C207.9,129.4,212.1,119.3,207.9,119.2z"/>
				<g>
					<path class="st22" d="M200.2,125.2c0.1,0.7-0.2,1.4-0.8,1.5s-1.1-0.4-1.3-1.1c-0.1-0.7,0.2-1.4,0.8-1.5S200,124.5,200.2,125.2z
						"/>
					<path class="st22" d="M203,124.7c0.1,0.7-0.2,1.4-0.8,1.5s-1.1-0.4-1.3-1.1c-0.1-0.7,0.2-1.4,0.8-1.5
						C202.4,123.5,202.9,124,203,124.7z"/>
					<path class="st22" d="M200.2,125.2c0,0,0.1-0.2,0.8-0.1"/>
					<line class="st22" x1="203.1" y1="124.9" x2="205.5" y2="124.5"/>
				</g>
				<g>
					<path class="st11" d="M205.7,127.6c1.7,0.6,2.2-3.5,0.6-3.7c-1.2-0.1-1.3,1.6-1.3,1.6S204.7,127.2,205.7,127.6z"/>
				</g>
				<g class="st23">
					<g>
						<path class="st24" d="M206.2,124.5c-0.2,0.5-0.2,0.7-0.2,1s0,0.6-0.2,1.1c-0.4-0.3-0.6-0.7-0.6-1.2c0-0.2,0.1-0.5,0.3-0.7
							C205.8,124.6,206,124.5,206.2,124.5z"/>
					</g>
					<g>
						<path class="st24" d="M206.5,125.3c-0.4,0.1-0.5,0.5-0.5,0.7l-0.7-0.2C205.6,125.4,206.2,125.2,206.5,125.3z"/>
					</g>
				</g>
				<g>
					<path class="st25" d="M191.8,99.5h-12.7c-2.5,0-4.6-2.1-4.6-4.6V82.2c0-2.5,2.1-4.6,4.6-4.6h12.7c2.5,0,4.6,2.1,4.6,4.6v12.7
						C196.4,97.4,194.4,99.5,191.8,99.5z"/>
					<path class="st26" d="M191.1,97.6h-14.6c-2,0-3.6-1.6-3.6-3.6V79.3c0-2,1.6-3.6,3.6-3.6h14.6c2,0,3.6,1.6,3.6,3.6v14.6
						C194.7,95.9,193.1,97.6,191.1,97.6z"/>
					<g>
						<g>
							<path class="st27" d="M187.6,84.1h-0.1v-1.3c0-2.1-1.7-3.7-3.7-3.7s-3.7,1.7-3.7,3.7v1.3l0,0c-0.6,0-1,0.5-1,1v4.7
								c0,0.6,0.5,1,1,1h7.6c0.6,0,1-0.5,1-1v-4.7C188.6,84.6,188.1,84.1,187.6,84.1z M180.9,82.9c0-1.5,1.3-2.8,2.8-2.8
								s2.8,1.3,2.8,2.8v1.3h-5.6V82.9z"/>
							<path class="st28" d="M185,86.5c0-0.8-0.7-1.3-1.5-1.2c-0.5,0.1-0.8,0.5-0.9,0.9c-0.1,0.6,0.1,1.1,0.6,1.3
								c0.1,0.1,0.1,0.1,0.1,0.2l-0.2,0.8c-0.1,0.5,0.2,0.9,0.7,0.9s0.8-0.5,0.7-0.9l-0.2-0.8c0-0.1,0-0.2,0.1-0.2
								C184.7,87.4,185,87,185,86.5z"/>
						</g>
						<path class="st27" d="M188.2,92.6h-8.8c-0.2,0-0.4-0.2-0.4-0.4l0,0c0-0.2,0.2-0.4,0.4-0.4h8.8c0.2,0,0.4,0.2,0.4,0.4l0,0
							C188.6,92.4,188.4,92.6,188.2,92.6z"/>
						<path class="st27" d="M188.2,94.1h-8.8c-0.2,0-0.4-0.2-0.4-0.4l0,0c0-0.2,0.2-0.4,0.4-0.4h8.8c0.2,0,0.4,0.2,0.4,0.4l0,0
							C188.6,93.9,188.4,94.1,188.2,94.1z"/>
					</g>
				</g>
			</g>
			<path class="st11" d="M221.9,156.4L221.9,156.4c-0.7,0.9-3.6,1.5-4.9,0.3c-0.4-0.4-0.9-1.4-1.4-2.6c-1.2-3.2-2.3-7.9-2.3-7.9
				l6.3-3.2c0,0,0.8,3.6,1.5,7.1c0,0,0,0,0,0.1c0.2,1.1,0.4,2.2,0.6,3.1c0,0,0,0,0,0.1C221.9,154.5,222,155.7,221.9,156.4z"/>
			<path class="st13" d="M210.9,141.8c0.6,2.5,2.5,7.3,2.5,7.3c1.3,0.2,3.1,0,4.6-0.6c1.7-0.6,2.9-1.9,2.9-1.9s-1.3-3.6-2.4-6.1
				c-1-2.3-1.6-3.2-2.1-3.6c-0.7-0.7-1.7-1.5-2.5-1.9L210.9,141.8z"/>
			<path class="st13" d="M218.9,143.5l-3.7-1.6l-2.9-7.5c0,0,0.5,0.2,1.2,0.4l0,0c0,0,0,0,0.1,0c0,0,0,0,0.1,0
				c0.6,0.3,3.1,1.7,4.7,6.9v0.1c0.2,0.6,0.3,1.1,0.4,1.3c0,0,0,0,0,0.1C218.9,143.4,218.9,143.4,218.9,143.5z"/>
			<g>
				<path class="st11" d="M221.9,156.4L221.9,156.4c-0.1,0.5-0.2,0.8-0.4,0.9c0,0-0.6,0.3-0.6,0.4c-0.8,0.5-2.2,1.3-3.9,2
					c-4.2,1.8-10.3,3.9-13.6,4.9c0,0-0.3-0.9-0.8-1.9c0,0,3-1.4,5.9-3.6c2.9-2.2,7.2-5,7.2-5l1.1-1.3c0,0,3.8-3.5,4.4-2.8
					c0,0,0,0,0,0.1c0.1,0.4,0.4,1.7,0.6,3.1c0,0,0,0,0,0.1C221.9,154.5,222,155.7,221.9,156.4z"/>
				<path class="st21" d="M203,162.5c0,0-0.7,0.4-1.5,0.3c-0.4-0.1-0.6-0.3-0.9-0.3c-0.3-0.1-1.1-0.2-1.5-0.4s-0.6-0.2-0.6,0.2
					s0.8,0.8,1,0.9c0.2,0.1,0.5,0.5,0.5,0.5s-1.3,0.8-1.7,0.6c0,0-0.1,0.3,0,0.5s0.3,0.2,0.4,0.3c0,0.1-0.1,0.3,0,0.4
					c0.1,0.1,0.3,0.1,0.4,0.4c0.1,0.2,0,0.2,0.1,0.5c0.1,0.2,0.4,0.3,0.5,0.4s0,0.3,0.2,0.4c0.1,0.1,1.4-0.3,1.8-0.5
					c0.4-0.2,1.7-1.9,3-2.5L203,162.5z"/>
			</g>
			<path class="st29" d="M209.3,170.2h-9.6v-0.9h9.6c0.3,0,0.5,0.2,0.5,0.5l0,0C209.7,170,209.5,170.2,209.3,170.2z"/>
			<path class="st29" d="M204.1,170.2h-24c-0.3,0-0.5-0.2-0.6-0.5l-4.9-17.7c-0.1-0.4,0.2-0.8,0.6-0.8h23.2c0.5,0,1,0.4,1.2,0.9
				l4.9,17.6C204.5,170,204.3,170.2,204.1,170.2z"/>
			<path class="st30" d="M203.2,170.2h-24c-0.3,0-0.5-0.2-0.6-0.5l-4.9-17.7c-0.1-0.4,0.2-0.8,0.6-0.8h23.2c0.5,0,1,0.4,1.2,0.9
				l4.9,17.6C203.6,170,203.4,170.2,203.2,170.2z"/>
		</g>
	</g>
</g>
<path class="st12" d="M31.8,186.2c-1.1-0.6-2.9-2.1-2.9-2.1c-4.1,0.8-5.6-0.3-5.6-0.3c-2.1,3.8-1.1,6.9-1.1,6.9h17.2
	C39.9,188.1,33,186.8,31.8,186.2z"/>
<path class="st12" d="M48.5,185.5c-1.1-0.6-2.9-2.1-2.9-2.1c-4.1,0.8-5.6-0.3-5.6-0.3c-2.1,3.8-1.1,6.9-1.1,6.9h17.2
	C56.7,187.4,49.8,186.1,48.5,185.5z"/>
</svg>
