<svg xmlns="http://www.w3.org/2000/svg" xmlns:xlink="http://www.w3.org/1999/xlink" viewBox="0 0 726.64 593.61"><defs><style>.cls-1{fill:none;}.cls-2{isolation:isolate;}.cls-3{opacity:0.07;}.cls-4,.cls-5{fill:#f06022;}.cls-5,.cls-6{fill-rule:evenodd;}.cls-6{fill:#0061a3;}.cls-7{fill:#b5cfe2;}.cls-8{fill:#f4bdae;}.cls-9{fill:#003ca6;}.cls-10{fill:#0087ff;}.cls-11{fill:#f1f8ff;}.cls-12{fill:#3888e8;}.cls-13{fill:#5eb5f7;}.cls-14{fill:#b9ddff;}.cls-15{fill:#2599ff;}.cls-16,.cls-40{mix-blend-mode:multiply;}.cls-17{fill:silver;}.cls-18{fill:#005cdd;}.cls-19{fill:#7ab0f6;}.cls-20{fill:#fafbfd;}.cls-21{clip-path:url(#clip-path);}.cls-22{fill:#1a4d89;}.cls-23{fill:#ff625f;}.cls-24{fill:#fe920d;}.cls-25{fill:#fe8b21;}.cls-26{fill:#13252d;mix-blend-mode:lighten;}.cls-27{fill:#dd4845;}.cls-28{fill:#a1a8ae;}.cls-29{fill:#00beed;}.cls-30{fill:#e87a1f;}.cls-31{fill:#4baafc;}.cls-32{fill:#c2effd;}.cls-33{fill:#fff;}.cls-34{fill:#fac5ca;}.cls-35{fill:#094b7c;}.cls-36{fill:#f26122;}.cls-37{fill:#ed8b69;}.cls-38{fill:#1161a5;}.cls-39{fill:#0062c7;}.cls-40{fill:#c1e8fa;}.cls-41{fill:#f9c4c9;}.cls-42{fill:#203b70;}.cls-43{fill:#5090cc;}.cls-44{fill:#2f3081;}.cls-45{fill:#2a70b6;}.cls-46{fill:#6690bf;}.cls-47{fill:#f9c4c8;}.cls-48{fill:#004e4a;}.cls-49{fill:#ffc6ca;}.cls-50{fill:#007ee3;}.cls-51{fill:#25228a;}.cls-52{fill:#0b52ff;}.cls-53{fill:#2075ff;}.cls-54{fill:#ff769d;}.cls-55{fill:#269aff;}.cls-56{fill:#9cdbf5;}.cls-57{fill:#fbf8ef;}</style><clipPath id="clip-path"><rect class="cls-1" x="217.71" y="58.05" width="320.62" height="339.94"/></clipPath></defs><title>home banner 1</title><g class="cls-2"><g id="Layer_2" data-name="Layer 2"><g id="Layer_2-2" data-name="Layer 2"><g class="cls-3"><rect class="cls-4" x="4.32" y="61.59" width="323.7" height="160.42"/><path class="cls-5" d="M5.75,555.81Q375,555.81,342,61.55H172.41C189.82,258.15,167.54,385.08,0,397.76Z"/><path class="cls-6" d="M720.89,558.35Q351.64,558.35,384.68,59H554.22c-17.4,198.63,4.88,326.85,172.42,339.66Z"/></g></g><g id="Layer_3" data-name="Layer 3"><path class="cls-7" d="M268.62,451l-7-1.17s-2.44-54.18-8.15-70.59c0,0-78.06-1.86-89.58-59.41,0,0,60.33-18.39,89.81,50.8,0,0-2.74-52.38-15.46-102.72,0,0-58.83,9.38-66.56-42,0,0,35.86-16.28,62.45,16,0,0-7.77-40.24-17-60.94,0,0-44.43,6.21-57-37.91,0,0,32.59-3.85,52.74,19.9l-15.19-42.71s-35.6-28.79-25-70.91c0,0,40.33,18.45,30,66.18l14.6,46.32s7.21-43.31,38.51-43c0,0,.19,53.2-32.41,60.75,0,0,14.61,42.61,18.5,73.55,0,0-.86-56.39,46.22-64,0,0,13.14,44.22-41.75,73.41a817.57,817.57,0,0,1,13.2,105.43s-10-56.06,44.92-85.25c0,0,29.26,48.76-41.16,98.86A386.12,386.12,0,0,1,268.62,451Z"/><path class="cls-7" d="M417.07,310.1l-4.67-2.73s12.92-39,13.31-52.14c0,0-54.71-22.41-47.31-66.24,0,0,47.65,3.29,49.8,60.2,0,0,12.22-37.79,16.82-76.84,0,0-44.15-9.26-35.74-47.69,0,0,29.78-1.83,39.87,28.17,0,0,5.38-30.57,4.45-47.7,0,0-33.11-7.62-30.07-42.23,0,0,24.1,6.09,31.94,28.34l.79-34.32s-17.4-30,1.5-56.92c0,0,23.54,24,3.32,54.92l-2.19,36.72s16.8-28.69,38.87-20c0,0-14.23,37.68-39.34,34.22,0,0-1.18,34.09-6.79,57,0,0,14.63-40.13,50-32.8,0,0-2.66,34.84-49.38,40.66a617.37,617.37,0,0,1-19.15,78.15s8.1-42.35,54.82-48.17c0,0,7.53,42.4-55.83,58.82A293,293,0,0,1,417.07,310.1Z"/><path class="cls-7" d="M543.6,495.65l-6.52-3.82s18.07-54.54,18.62-72.92c0,0-76.53-31.34-66.18-92.64,0,0,66.65,4.6,69.66,84.2,0,0,17.09-52.86,23.52-107.47,0,0-61.74-13-50-66.69,0,0,41.64-2.56,55.75,39.38,0,0,7.52-42.75,6.23-66.71,0,0-46.31-10.65-42.06-59,0,0,33.7,8.51,44.67,39.63l1.11-48S574.08,99.62,600.51,62c0,0,32.93,33.5,4.65,76.81l-3.06,51.35s23.49-40.13,54.36-28c0,0-19.91,52.7-55,47.86,0,0-1.65,47.68-9.49,79.76,0,0,20.46-56.12,69.92-45.87,0,0-3.71,48.72-69.06,56.86A864.83,864.83,0,0,1,566,410s11.33-59.23,76.67-67.37c0,0,10.52,59.3-78.09,82.25A409.49,409.49,0,0,1,543.6,495.65Z"/><path class="cls-8" d="M192.11,511.59l4.3-3.34S179,471.81,177.09,459c0,0,51.57-29.69,39.09-71.66,0,0-46.82,9.93-42.26,66.09,0,0-16.55-35.37-25.7-73,0,0,42.65-15.31,29.8-51.82,0,0-29.71,2.39-36.18,33.24,0,0-8.92-29.23-10-46.18,0,0,31.9-12.13,24.82-45.66,0,0-23.16,9.36-28.31,32.3l-4.82-33.57s13.71-31.88-8.17-55.64c0,0-20.51,26.82,3.16,54.36L125,303.1s-20-25.79-40.87-14.2c0,0,18.54,35,43,28,0,0,5.18,33.29,13.43,55,0,0-19.21-37.32-53.39-25.14,0,0,6.73,33.8,53.7,32.94a594.58,594.58,0,0,0,28.16,74s-13-40.41-60-39.55c0,0-2.47,42.67,62.22,49.85A281.44,281.44,0,0,0,192.11,511.59Z"/><path class="cls-9" d="M614.39,534.73v-4H613.1v.83L560.39,414.43a2,2,0,0,0-1.89-1.21l-357,.58a2.08,2.08,0,0,0-1.92,1.31L153.37,530.87h-1.46V535h0a2.07,2.07,0,0,0,2.07,2l458.35,0A2.07,2.07,0,0,0,614.39,534.73Z"/><rect class="cls-10" x="200.47" y="169.8" width="358.26" height="256.09" rx="16.91"/><rect class="cls-11" x="218.18" y="185.22" width="318.89" height="212.52"/><path class="cls-12" d="M612.33,532.85l-458.35,0a2.07,2.07,0,0,1-1.92-2.83L199.58,411c.31-.78.89-2.84,1.92-3.87l357-.59a27.31,27.31,0,0,0,1.89,3.79l53.82,119.61A2.07,2.07,0,0,1,612.33,532.85Z"/><polygon class="cls-13" points="576.07 482.09 187.72 482.34 212.81 413.68 547.35 413.15 576.07 482.09"/><path class="cls-14" d="M235.68,477.39l-26.28,0a1,1,0,0,1-1-1.35l3.08-9.4a1,1,0,0,1,1-.71l25.73,0a1,1,0,0,1,1,1.3l-2.53,9.4A1,1,0,0,1,235.68,477.39Z"/><path class="cls-14" d="M275.5,477.37l-26.32,0a1,1,0,0,1-1-1.28l2.32-9.41a1,1,0,0,1,1-.78l25.77,0a1,1,0,0,1,1,1.22l-1.78,9.41A1,1,0,0,1,275.5,477.37Z"/><path class="cls-14" d="M445.45,465.76H434.32l-27.82,0H395.37l-27.82,0H356.42l-27.82,0-38.08,0a1,1,0,0,0-1,.86L288,476.16a1,1,0,0,0,1,1.2l38.67,0,28.49,0h11.4l28.48,0h11.4l28.49,0h11.39l27.22,0a1,1,0,0,0,1-1.25l-2.05-9.44a1,1,0,0,0-1-.81Z"/><path class="cls-14" d="M514.28,477.2l-26.3,0a1,1,0,0,1-1-.79L484.71,467a1,1,0,0,1,1-1.27l25.75,0a1,1,0,0,1,1,.74l2.82,9.44A1,1,0,0,1,514.28,477.2Z"/><path class="cls-14" d="M554.05,477.17l-26.25,0a1,1,0,0,1-1-.71l-3-9.45a1,1,0,0,1,1-1.34l25.71,0a1,1,0,0,1,1,.66l3.58,9.45A1,1,0,0,1,554.05,477.17Z"/><path class="cls-14" d="M258.64,449.86h-4l-36.91,0a1,1,0,0,0-1,.7L213.69,460a1,1,0,0,0,1,1.35l37.16,0h4.09l22.62,0a1,1,0,0,0,1-.84l1.77-9.41a1,1,0,0,0-1-1.22Z"/><path class="cls-14" d="M317,461.28l-25.42,0a1,1,0,0,1-1-1.2l1.55-9.41a1,1,0,0,1,1-.86l24.87,0a1,1,0,0,1,1,1.14l-1,9.42A1,1,0,0,1,317,461.28Z"/><path class="cls-14" d="M355.54,461.24l-25.44,0a1,1,0,0,1-1-1.11l.79-9.42a1,1,0,0,1,1-.94l24.89,0a1,1,0,0,1,1,1.06l-.25,9.42A1,1,0,0,1,355.54,461.24Z"/><path class="cls-14" d="M394,461.21l-25.44,0a1,1,0,0,1-1-1l0-9.43a1,1,0,0,1,1-1l24.9,0a1,1,0,0,1,1,1l.53,9.43A1,1,0,0,1,394,461.21Z"/><path class="cls-14" d="M432.52,461.17l-25.43,0a1,1,0,0,1-1-.94l-.74-9.43a1,1,0,0,1,1-1.11l24.88,0a1,1,0,0,1,1,.89l1.29,9.43A1,1,0,0,1,432.52,461.17Z"/><path class="cls-14" d="M471,461.14l-25.41,0a1,1,0,0,1-1-.87l-1.51-9.43a1,1,0,0,1,1-1.19l24.85,0a1,1,0,0,1,1,.81l2.05,9.44A1,1,0,0,1,471,461.14Z"/><path class="cls-14" d="M507.42,449.6h-4.1l-21.49,0a1,1,0,0,0-1,1.27l2.27,9.44a1,1,0,0,0,1,.79l22.54,0h4.2l37.09,0a1,1,0,0,0,1-1.4l-3.58-9.44a1,1,0,0,0-1-.67Z"/><path class="cls-14" d="M252.34,433.82l-15,0-14.3,0a1,1,0,0,0-1,.71L219,444a1,1,0,0,0,1,1.35h14l15.42,0,14.61,0a1,1,0,0,0,1-.8l2.13-9.41a1,1,0,0,0-1-1.25Z"/><path class="cls-14" d="M300.15,445.23l-24.47,0a1,1,0,0,1-1-1.24l1.94-9.41a1,1,0,0,1,1-.82l23.93,0a1,1,0,0,1,1,1.18l-1.39,9.41A1,1,0,0,1,300.15,445.23Z"/><path class="cls-14" d="M337.35,445.19l-24.49,0a1,1,0,0,1-1-1.16l1.17-9.41a1.05,1.05,0,0,1,1-.91l24,0a1,1,0,0,1,1,1.1l-.62,9.42A1,1,0,0,1,337.35,445.19Z"/><path class="cls-14" d="M374.55,445.15l-24.51,0a1,1,0,0,1-1-1.08l.41-9.42a1,1,0,0,1,1-1l24,0a1,1,0,0,1,1,1l.14,9.43A1,1,0,0,1,374.55,445.15Z"/><path class="cls-14" d="M411.73,445.11l-24.5,0a1,1,0,0,1-1-1l-.36-9.43a1,1,0,0,1,1-1.07l24,0a1,1,0,0,1,1,.93l.91,9.43A1,1,0,0,1,411.73,445.11Z"/><path class="cls-14" d="M448.91,445.07l-24.48,0a1,1,0,0,1-1-.9l-1.12-9.44a1,1,0,0,1,1-1.15l23.94,0a1,1,0,0,1,1,.85l1.66,9.44A1,1,0,0,1,448.91,445.07Z"/><path class="cls-14" d="M486.09,445l-24.46,0a1,1,0,0,1-1-.82l-1.89-9.44a1,1,0,0,1,1-1.23l23.91,0a1,1,0,0,1,1,.77l2.43,9.44A1,1,0,0,1,486.09,445Z"/><path class="cls-14" d="M524,433.48l-14.92,0H495.55a1,1,0,0,0-1,1.31l2.64,9.44a1,1,0,0,0,1,.75l14.53,0H528l13.82,0a1,1,0,0,0,1-1.39l-3.59-9.45a1,1,0,0,0-1-.66Z"/><path class="cls-14" d="M248.67,429.24l-23.49,0a1,1,0,0,1-1-1.35l3.08-9.41a1,1,0,0,1,1-.7l22.94,0a1,1,0,0,1,1,1.3l-2.54,9.4A1,1,0,0,1,248.67,429.24Z"/><path class="cls-14" d="M284.57,429.2l-23.52,0a1,1,0,0,1-1-1.28l2.32-9.41a1,1,0,0,1,1-.78l23,0a1,1,0,0,1,1,1.22l-1.78,9.41A1,1,0,0,1,284.57,429.2Z"/><path class="cls-14" d="M320.47,429.15l-23.55,0a1,1,0,0,1-1-1.2l1.55-9.41a1,1,0,0,1,1-.86l23,0a1,1,0,0,1,1,1.14l-1,9.42A1,1,0,0,1,320.47,429.15Z"/><path class="cls-14" d="M356.37,429.1l-23.58,0a1,1,0,0,1-1-1.11l.79-9.42a1,1,0,0,1,1-1l23,0a1,1,0,0,1,1,1.06l-.25,9.42A1,1,0,0,1,356.37,429.1Z"/><path class="cls-14" d="M392.25,429.05l-23.57,0a1,1,0,0,1-1-1l0-9.42a1,1,0,0,1,1-1l23,0a1,1,0,0,1,1,1l.53,9.43A1,1,0,0,1,392.25,429.05Z"/><path class="cls-14" d="M428.13,429l-23.56,0a1,1,0,0,1-1-.94l-.74-9.43a1,1,0,0,1,1-1.11l23,0a1,1,0,0,1,1,.89l1.29,9.44A1,1,0,0,1,428.13,429Z"/><path class="cls-14" d="M464,429l-23.54,0a1,1,0,0,1-1-.87l-1.51-9.43a1,1,0,0,1,1-1.2l23,0a1,1,0,0,1,1,.81l2.06,9.44A1,1,0,0,1,464,429Z"/><path class="cls-14" d="M499.87,428.91l-23.5,0a1,1,0,0,1-1-.79l-2.27-9.44a1,1,0,0,1,1-1.27l23,0a1,1,0,0,1,1,.73l2.81,9.44A1,1,0,0,1,499.87,428.91Z"/><path class="cls-14" d="M535.73,428.86l-23.46,0a1,1,0,0,1-1-.71l-3-9.45a1,1,0,0,1,1-1.34l22.9,0a1,1,0,0,1,1,.67l3.58,9.44A1,1,0,0,1,535.73,428.86Z"/><path class="cls-15" d="M464.87,527.76l-163.57,0c-7.42,0-13.09-2.28-12.67-5.1l4.13-27.43c.42-2.81,6.36-5.1,13.27-5.1l152.21-.09c6.9,0,13,2.28,13.52,5.1l5.52,27.48C477.85,525.47,472.29,527.76,464.87,527.76Z"/><path class="cls-10" d="M306.29,490.13c-6.91,0-12.85,2.29-13.27,5.1l-4.13,27.43c-.42,2.82,5.25,5.1,12.67,5.1l110.58,0L347.33,490.1Z"/><g class="cls-16"><path class="cls-17" d="M347.75,490.14l-41.05,0a25.73,25.73,0,0,0-9.26,1.58H350.5Z"/><path class="cls-17" d="M347.75,490.14l2.75,1.6h118a26,26,0,0,0-9.58-1.67Z"/></g><g class="cls-16"><path class="cls-17" d="M430.46,532.89H325.67a1.7,1.7,0,0,1-1.7-1.69h0a1.69,1.69,0,0,1,1.7-1.69H430.46a1.69,1.69,0,0,1,1.69,1.69h0A1.69,1.69,0,0,1,430.46,532.89Z"/></g><path class="cls-17" d="M383.15,172.1h0a4.45,4.45,0,0,0-4.43,4.44h0a4.44,4.44,0,0,0,4.43,4.43h0a4.45,4.45,0,0,0,4.44-4.43h0A4.46,4.46,0,0,0,383.15,172.1Z"/><path class="cls-18" d="M235.68,476.11l-26.28,0a1,1,0,0,1-1-1.35l3.08-9.41a1,1,0,0,1,1-.7l25.73,0a1,1,0,0,1,1,1.29l-2.53,9.41A1,1,0,0,1,235.68,476.11Z"/><path class="cls-18" d="M275.5,476.08l-26.32,0a1,1,0,0,1-1-1.27l2.32-9.41a1,1,0,0,1,1-.79l25.77,0a1,1,0,0,1,1,1.22l-1.78,9.41A1,1,0,0,1,275.5,476.08Z"/><path class="cls-18" d="M445.45,464.47H434.32l-27.82,0H395.37l-27.82,0H356.42l-27.82,0-38.08,0a1,1,0,0,0-1,.86L288,474.88a1,1,0,0,0,1,1.19l38.67,0,28.49,0h11.4L396,476h11.4l28.49,0h11.39l27.22,0a1,1,0,0,0,1-1.24l-2.05-9.44a1,1,0,0,0-1-.81Z"/><path class="cls-18" d="M514.28,475.91l-26.3,0a1,1,0,0,1-1-.79l-2.27-9.43a1,1,0,0,1,1-1.27l25.75,0a1,1,0,0,1,1,.73l2.82,9.44A1,1,0,0,1,514.28,475.91Z"/><path class="cls-18" d="M554.05,475.89l-26.25,0a1,1,0,0,1-1-.72l-3-9.44a1,1,0,0,1,1-1.35l25.71,0a1,1,0,0,1,1,.67l3.58,9.44A1,1,0,0,1,554.05,475.89Z"/><path class="cls-18" d="M258.64,448.58h-4l-36.91,0a1,1,0,0,0-1,.71l-3.08,9.4a1,1,0,0,0,1,1.35l37.16,0h4.09l22.62,0a1,1,0,0,0,1-.83l1.77-9.42a1,1,0,0,0-1-1.21Z"/><path class="cls-18" d="M317,460l-25.42,0a1,1,0,0,1-1-1.19l1.55-9.42a1,1,0,0,1,1-.86l24.87,0a1,1,0,0,1,1,1.13l-1,9.42A1,1,0,0,1,317,460Z"/><path class="cls-18" d="M355.54,460l-25.44,0a1,1,0,0,1-1-1.12l.79-9.42a1,1,0,0,1,1-.94l24.89,0a1,1,0,0,1,1,1l-.25,9.42A1,1,0,0,1,355.54,460Z"/><path class="cls-18" d="M394,459.92l-25.44,0a1,1,0,0,1-1-1l0-9.42a1,1,0,0,1,1-1l24.9,0a1,1,0,0,1,1,1l.53,9.42A1,1,0,0,1,394,459.92Z"/><path class="cls-18" d="M432.52,459.89l-25.43,0a1,1,0,0,1-1-1l-.74-9.43a1,1,0,0,1,1-1.11l24.88,0a1,1,0,0,1,1,.89l1.29,9.43A1,1,0,0,1,432.52,459.89Z"/><path class="cls-18" d="M471,459.85l-25.41,0a1,1,0,0,1-1-.86l-1.51-9.44a1,1,0,0,1,1-1.19l24.85,0a1,1,0,0,1,1,.81L472,458.6A1,1,0,0,1,471,459.85Z"/><path class="cls-18" d="M507.42,448.32h-4.1l-21.49,0a1,1,0,0,0-1,1.27l2.27,9.44a1,1,0,0,0,1,.79l22.54,0h4.2l37.09,0a1,1,0,0,0,1-1.39l-3.58-9.45a1,1,0,0,0-1-.66Z"/><path class="cls-18" d="M252.34,432.54l-15,0-14.3,0a1,1,0,0,0-1,.7L219,442.69a1,1,0,0,0,1,1.35l14,0,15.42,0H264a1,1,0,0,0,1-.8l2.13-9.41a1,1,0,0,0-1-1.26Z"/><path class="cls-18" d="M300.15,444l-24.47,0a1,1,0,0,1-1-1.23l1.94-9.41a1,1,0,0,1,1-.82l23.93,0a1,1,0,0,1,1,1.18l-1.39,9.42A1,1,0,0,1,300.15,444Z"/><path class="cls-18" d="M337.35,443.9l-24.49,0a1,1,0,0,1-1-1.15l1.17-9.42a1,1,0,0,1,1-.9l24,0a1,1,0,0,1,1,1.1l-.62,9.41A1,1,0,0,1,337.35,443.9Z"/><path class="cls-18" d="M374.55,443.86l-24.51,0a1,1,0,0,1-1-1.07l.41-9.42a1,1,0,0,1,1-1l24,0a1,1,0,0,1,1,1l.14,9.42A1,1,0,0,1,374.55,443.86Z"/><path class="cls-18" d="M411.73,443.82l-24.5,0a1,1,0,0,1-1-1l-.36-9.43a1,1,0,0,1,1-1.06l24,0a1,1,0,0,1,1,.93l.91,9.43A1,1,0,0,1,411.73,443.82Z"/><path class="cls-18" d="M448.91,443.78l-24.48,0a1,1,0,0,1-1-.91l-1.12-9.43a1,1,0,0,1,1-1.15l23.94,0a1,1,0,0,1,1,.85l1.66,9.43A1,1,0,0,1,448.91,443.78Z"/><path class="cls-18" d="M486.09,443.74l-24.46,0a1,1,0,0,1-1-.83l-1.89-9.44a1,1,0,0,1,1-1.23l23.91,0a1,1,0,0,1,1,.77l2.43,9.44A1,1,0,0,1,486.09,443.74Z"/><path class="cls-18" d="M524,432.19l-14.92,0-13.57,0a1,1,0,0,0-1,1.3L497.2,443a1,1,0,0,0,1,.76l14.53,0,15.3,0h13.82a1,1,0,0,0,1-1.4l-3.59-9.44a1,1,0,0,0-1-.67Z"/><path class="cls-18" d="M248.67,428l-23.49,0a1,1,0,0,1-1-1.35l3.08-9.4a1,1,0,0,1,1-.71l22.94,0a1,1,0,0,1,1,1.3l-2.54,9.41A1,1,0,0,1,248.67,428Z"/><path class="cls-18" d="M284.57,427.91l-23.52,0a1,1,0,0,1-1-1.27l2.32-9.41a1,1,0,0,1,1-.78l23,0a1,1,0,0,1,1,1.22l-1.78,9.41A1,1,0,0,1,284.57,427.91Z"/><path class="cls-18" d="M320.47,427.86l-23.55,0a1,1,0,0,1-1-1.19l1.55-9.42a1,1,0,0,1,1-.86l23,0a1,1,0,0,1,1,1.14l-1,9.41A1,1,0,0,1,320.47,427.86Z"/><path class="cls-18" d="M356.37,427.81l-23.58,0a1,1,0,0,1-1-1.12l.79-9.42a1,1,0,0,1,1-.94l23,0a1,1,0,0,1,1,1.06l-.25,9.42A1,1,0,0,1,356.37,427.81Z"/><path class="cls-18" d="M392.25,427.77l-23.57,0a1,1,0,0,1-1-1l0-9.43a1,1,0,0,1,1-1l23,0a1,1,0,0,1,1,1l.53,9.43A1,1,0,0,1,392.25,427.77Z"/><path class="cls-18" d="M428.13,427.72l-23.56,0a1,1,0,0,1-1-.95l-.74-9.43a1,1,0,0,1,1-1.11l23,0a1,1,0,0,1,1,.89l1.29,9.43A1,1,0,0,1,428.13,427.72Z"/><path class="cls-18" d="M464,427.67l-23.54,0a1,1,0,0,1-1-.87l-1.51-9.43a1,1,0,0,1,1-1.19l23,0a1,1,0,0,1,1,.81l2.06,9.44A1,1,0,0,1,464,427.67Z"/><path class="cls-18" d="M499.87,427.62l-23.5,0a1,1,0,0,1-1-.79l-2.27-9.44a1,1,0,0,1,1-1.26l23,0a1,1,0,0,1,1,.74l2.81,9.44A1,1,0,0,1,499.87,427.62Z"/><path class="cls-18" d="M535.73,427.57l-23.46,0a1,1,0,0,1-1-.71l-3-9.44a1,1,0,0,1,1-1.35l22.9,0a1,1,0,0,1,1,.66l3.58,9.45A1,1,0,0,1,535.73,427.57Z"/><rect class="cls-19" x="217.71" y="184.95" width="320.62" height="213.04"/><rect class="cls-18" x="217.71" y="184.95" width="320.62" height="27.49"/><path class="cls-20" d="M224.46,199.51c0,3.62,3.27,6.55,7.31,6.55s7.3-2.93,7.3-6.55-3.27-6.54-7.3-6.54S224.46,195.9,224.46,199.51Z"/><path class="cls-20" d="M245.2,199.51c0,3.62,3.27,6.55,7.3,6.55s7.31-2.93,7.31-6.55S256.54,193,252.5,193,245.2,195.9,245.2,199.51Z"/><path class="cls-20" d="M265.94,199.51c0,3.62,3.27,6.55,7.3,6.55s7.3-2.93,7.3-6.55-3.27-6.54-7.3-6.54S265.94,195.9,265.94,199.51Z"/><g class="cls-21"><path class="cls-22" d="M342.72,310.37c.76,2.69,8,5,18.69,6.36,1.16-3.82,2.54-7.51,4-11.06A139.18,139.18,0,0,0,342.72,310.37Z"/><path class="cls-22" d="M403.07,316.71c10.94-1.38,18.3-3.82,18.64-6.61a140.37,140.37,0,0,0-23.51-4.66C400,309.07,401.63,312.84,403.07,316.71Z"/><path class="cls-22" d="M350.68,300.89h0q-5.22,1.22-10.28,2.82-1-3.1-1.95-6.33a264.38,264.38,0,0,1-10.22-56,56,56,0,0,0-10.6,7c-6.25,5.26-12,12.82-13.12,23.2-1.93,18.21,4.5,44.88,7.86,57.16,1.13,4.13,1.91,6.63,1.91,6.63,1.48-4.61,12-17.33,19-24.9a16.94,16.94,0,0,1,7.78-4.7c-.22-.66-.44-1.32-.65-2Q345.46,302.11,350.68,300.89Z"/><path class="cls-22" d="M419.64,302.14l-1.1-.28Z"/><path class="cls-22" d="M461,271.5c-1.1-10.38-6.87-17.94-13.12-23.2a56.47,56.47,0,0,0-11.08-7.19,265.49,265.49,0,0,1-12.14,62.5l-.28-.08.28.08c-.21.66-.42,1.3-.64,1.95a17.16,17.16,0,0,1,8.22,4.83c7,7.57,17.51,20.29,19,24.9,0,0,.78-2.5,1.91-6.63C456.52,316.38,463,289.71,461,271.5Z"/><path class="cls-23" d="M368.67,297.93h0q3.18-.31,6.41-.49h0Q371.86,297.62,368.67,297.93Z"/><path class="cls-24" d="M375.08,297.44h0c2.52-.13,5.06-.23,7.61-.23h0C380.14,297.21,377.6,297.31,375.08,297.44Z"/><path class="cls-25" d="M382.69,297.21c1.67,0,3.34,0,5,.1-1.65-.06-3.32-.1-5-.1Z"/><path class="cls-25" d="M424.4,303.53c-1.57-.49-3.16-1-4.76-1.39l-1.1-.28q-2-.54-4-1l-1-.21c-1.4-.31-2.79-.62-4.21-.89l-1-.18c-1.4-.26-2.81-.51-4.23-.73H404a3.17,3.17,0,0,1-1.78,0l-1.72-.47-.7-.1c-.79-.1-1.59-.18-2.38-.26s-1.74-.18-2.61-.25q-3.54-.31-7.14-.44c-1.65-.06-3.32-.1-5-.1-2.55,0-5.09.1-7.61.23q-3.22.18-6.41.49a140,140,0,0,0-18,3q-5.22,1.22-10.28,2.82c.21.66.43,1.32.65,2q.78,2.38,1.59,4.7l.08,0a139.18,139.18,0,0,1,22.67-4.7q3.21-.41,6.46-.66c1.84-.14,3.69-.25,5.56-.32s3.51-.1,5.28-.1c1.34,0,2.68,0,4,.07,1.76,0,27.42,3.25,35,5.44.24.07.49.13.73.21.54-1.56,1.08-3.15,1.6-4.75.22-.65.43-1.29.64-1.95Z"/><path class="cls-14" d="M340.4,303.71q5.06-1.6,10.28-2.82a140,140,0,0,1,18-3q3.18-.31,6.41-.49c2.52-.13,5.06-.23,7.61-.23,1.67,0,3.34,0,5,.1q3.6.12,7.14.44c.87.07,1.74.16,2.61.25s1.59.16,2.38.26l.6.07c1.2.15,2.41.31,3.61.5h.05c1.42.22,2.83.47,4.23.73l1,.18c1.42.27,2.81.58,4.21.89l1,.21q2,.48,4,1l1.1.28c1.6.43,3.19.9,4.76,1.39l.28.08a265.49,265.49,0,0,0,12.14-62.5,255.56,255.56,0,0,0,.38-29.41c-.68-14.81-2.09-45.67-13.58-77a139.31,139.31,0,0,0-27.71-5.45q-6.53-.62-13.22-.62a140.08,140.08,0,0,0-41.3,6.19c-11.46,31.29-12.87,62.09-13.54,76.88a253,253,0,0,0,.38,29.65,264.38,264.38,0,0,0,10.22,56Q339.4,300.6,340.4,303.71Zm77-165.48a2.31,2.31,0,1,1-2.31,2.31A2.31,2.31,0,0,1,417.41,138.23ZM381.68,150a44.43,44.43,0,1,1-44.42,44.42A44.42,44.42,0,0,1,381.68,150Z"/><path class="cls-26" d="M400.41,298.33l.1,0c1.17.14,2.34.29,3.5.47h0C402.82,298.64,401.61,298.48,400.41,298.33Z"/><path class="cls-27" d="M402.23,298.83a3.17,3.17,0,0,0,1.78,0c-1.16-.18-2.33-.33-3.5-.47Z"/><path class="cls-26" d="M402.23,298.83a3.17,3.17,0,0,0,1.78,0c-1.16-.18-2.33-.33-3.5-.47Z"/><path class="cls-25" d="M395.91,129.25a139.31,139.31,0,0,1,27.71,5.45C416,114,404,93.1,384.94,76.48c-1-.87-1.84-1.58-2.42-2-.57.47-1.41,1.18-2.41,2a127.51,127.51,0,0,0-24.2,28.45,157.55,157.55,0,0,0-14.52,29.89,140.08,140.08,0,0,1,41.3-6.19Q389.38,128.63,395.91,129.25Z"/><path class="cls-28" d="M417.41,142.84a2.31,2.31,0,1,0-2.31-2.3A2.31,2.31,0,0,0,417.41,142.84Z"/><path class="cls-29" d="M364.55,219.33a30.25,30.25,0,0,1-2.95-29,5.84,5.84,0,0,1-2.55-1.63c-2.94-3.3-1.37-9.51,3.52-13.86s11.22-5.2,14.17-1.9a5.26,5.26,0,0,1,.87,1.33,30.35,30.35,0,0,1,29,2.9,30.26,30.26,0,1,0-42.06,42.11Z"/><path class="cls-30" d="M381.68,238.81a44.43,44.43,0,1,0-44.42-44.43A44.42,44.42,0,0,0,381.68,238.81Zm0-78.62a34.21,34.21,0,1,1-34.2,34.21A34.21,34.21,0,0,1,381.68,160.19Z"/><path class="cls-25" d="M372.83,227.44a34.21,34.21,0,1,0-25.35-33A34,34,0,0,0,372.83,227.44Zm8.85-63.32a30.26,30.26,0,1,1-30.26,30.26A30.24,30.24,0,0,1,381.68,164.12Z"/><path class="cls-31" d="M377.61,174.32c1.63,3.46-.1,8.71-4.39,12.53-3.75,3.34-8.35,4.6-11.62,3.53a30.25,30.25,0,0,0,2.95,29,30.26,30.26,0,0,0,42.06-42.11,30.35,30.35,0,0,0-29-2.9Z"/><path class="cls-32" d="M373.22,186.85c4.29-3.82,6-9.07,4.39-12.53a5.26,5.26,0,0,0-.87-1.33c-2.95-3.3-9.29-2.45-14.17,1.9s-6.46,10.56-3.52,13.86a5.84,5.84,0,0,0,2.55,1.63C364.87,191.45,369.47,190.19,373.22,186.85Z"/><circle class="cls-33" cx="379.68" cy="403.42" r="56.45" transform="translate(-79.35 713.57) rotate(-80.78)"/><circle class="cls-33" cx="308.14" cy="421.37" r="56.5" transform="translate(-46.59 38.4) rotate(-6.63)"/><circle class="cls-33" cx="465.03" cy="411.68" r="46.81" transform="translate(25.26 850.23) rotate(-86.44)"/><path class="cls-33" d="M269.54,341.46a6.88,6.88,0,1,1,6.88,6.89A6.88,6.88,0,0,1,269.54,341.46Z"/><circle class="cls-33" cx="426.49" cy="334.58" r="8.26" transform="translate(2.87 672.79) rotate(-76.72)"/><circle class="cls-33" cx="244.75" cy="414.43" r="35.8" transform="translate(-182.63 635.8) rotate(-86.82)"/><circle class="cls-33" cx="526.99" cy="414.43" r="28.91" transform="translate(-138.7 494.02) rotate(-45)"/><path class="cls-33" d="M365.39,305.67s16.22-3.84,32.81-.23L431,382.31l-94.32-.87Z"/></g><circle class="cls-33" cx="303.8" cy="144.67" r="7.33" transform="translate(93.2 407.1) rotate(-76.72)"/><polygon class="cls-34" points="481.01 221.51 480.41 229.55 476.39 229.15 475.99 220.91 481.01 221.51"/><polygon class="cls-34" points="518.25 216.62 521.21 224.11 517.42 225.5 513.47 218.26 518.25 216.62"/><path class="cls-35" d="M482.22,227.34l-6.63,1s-6.63,4.42-9.24,4.62-5.22,2.61-2.61,3,19.28-.8,19.28-.8Z"/><path class="cls-35" d="M527.76,163.35S492.47,168,493.47,178,483,222.12,483,222.12l-9.44-.21s6.66-43.06,6.66-49.09,33-19.31,33-19.31Z"/><path class="cls-36" d="M526,99.08l-10,4.22s-7.68,41.22-5.83,47.6c1.81,6.23,9.24,5.22,9.24,5.22l19.28-.8L537,132Z"/><path class="cls-34" d="M509.48,81.81s-2.61,15.66,7.43,15.66l-.4,10.85,9.24-4-.6-23.9L512.89,80Z"/><path class="cls-35" d="M518.72,81.4s-11.05,2.41-11.25.21-2.21-12.06,8-8.64,14.06,3.41,13.06,8.23-2.81,10.65-2.81,10.65l-2-.8-1.21-5s3.82-2.21,1.21-4-3,1.4-3,1.4Z"/><path class="cls-35" d="M521.79,222.92,515,225.53s-.4,4.82-3,5.42-6.62,2.61-6.22,4.22,12-.8,12-.8l7.63-6Z"/><path class="cls-34" d="M497.43,144.67a5.46,5.46,0,0,1-.62,0c-.24,0-.47,0-.7,0-.47,0-.95-.06-1.42-.12A15.44,15.44,0,0,1,492,144a10.41,10.41,0,0,1-2.41-1.19,7.66,7.66,0,0,1-1.84-1.84l-.09-.12a1.52,1.52,0,0,0-2.57,1.6,10.83,10.83,0,0,0,2.28,3,14.09,14.09,0,0,0,3.07,2.11,19.42,19.42,0,0,0,3.4,1.28c.57.16,1.16.3,1.75.41l.89.14c.32,0,.59.08,1,.11h.15a2.42,2.42,0,1,0,.28-4.84A3.09,3.09,0,0,0,497.43,144.67Z"/><path class="cls-37" d="M526.75,101.29s-13.66-1.61-9.44,12.45,11.05,19.89,1.41,23.1-22.3,7-22.3,7l.81,7.63s42,2,42.78-8.43-5.22-30.93-6.23-33.14S528.76,102.49,526.75,101.29Z"/><path class="cls-38" d="M537.2,153.71s6,10.34-2.65,16.33c-7.35,5.07-29.76,5.76-29,7.42,1.61,3.62,16.66,41.24,16.66,41.24l-9,2.21s-22.65-32.56-24.06-42.61,24.81-23,24.81-23Z"/><path class="cls-39" d="M473,141.73h38.4a2.4,2.4,0,0,0,2.4-2.39h0a2.4,2.4,0,0,0-2.4-2.39H473a2.39,2.39,0,0,0-2.39,2.39h0A2.39,2.39,0,0,0,473,141.73Z"/><path class="cls-39" d="M475.86,137.33l-16.8-33.46a2.51,2.51,0,0,0-3.29-1.1h0a2.37,2.37,0,0,0-1.13,3.21l16.79,33.45a2.51,2.51,0,0,0,3.3,1.1h0A2.38,2.38,0,0,0,475.86,137.33Z"/><circle class="cls-40" cx="597.91" cy="285.78" r="46.19" transform="translate(182.4 802.04) rotate(-76.72)"/><path class="cls-41" d="M632.14,376.21l-.1-.06-.16-.09-.32-.2-.66-.44c-.45-.3-.89-.62-1.33-.95-.89-.66-1.75-1.36-2.59-2.09a56,56,0,0,1-4.81-4.69,65.81,65.81,0,0,1-8-10.81,72.79,72.79,0,0,1-5.72-12.15,83.14,83.14,0,0,1-3.54-13h0a1.53,1.53,0,0,0-1.8-1.14,1.5,1.5,0,0,0-1.29,1.57,87.54,87.54,0,0,0,2.57,13.71,77.08,77.08,0,0,0,5,13.24A70.13,70.13,0,0,0,617,371.37a64,64,0,0,0,4.9,5.57c.88.88,1.79,1.75,2.76,2.59.48.42,1,.83,1.49,1.24l.79.62.42.3.22.16.27.19a4,4,0,0,0,5.26-1A3.3,3.3,0,0,0,632.14,376.21Z"/><polygon class="cls-41" points="636.73 504.86 635.06 511.41 631.62 510.86 632.66 503.57 636.73 504.86"/><path class="cls-35" d="M638.37,506.16l-8.19-.67s-2.26-52.06-1.23-61.77,0-28.8,0-28.8l9.19,5.82,4.64,31.77L645,457.4s-4.08,9.12-4.15,15.48S644.46,489.9,638.37,506.16Z"/><path class="cls-35" d="M636.52,510l-6.52.89s-6.76,3.49-5.68,5.8,12.45-1,12.45-1S637.25,510.48,636.52,510Z"/><polygon class="cls-41" points="676.14 455.64 680.94 450.94 683.54 454.01 677.9 458.58 676.14 455.64"/><path class="cls-41" d="M630.1,343.35s-2.57,5.75-2.67,6.13c-.71,2.57-3,12.71,4.76,13.83l-1.71,8-3.4,4.48a44.7,44.7,0,0,0,11.47-2.92l5.66-20.19-4.72-5.13-3.11-9Z"/><path class="cls-36" d="M634.92,371.78l-5.87.68s-8.5,12.89-7.39,16.68,6.58,19.38,6.64,24.51l17-1.71s1.61-24.52,1.24-31.23-3.39-9.34-3.39-9.34Z"/><path class="cls-38" d="M628.3,413.65S639,469.12,651.69,478c14.88,10.34,32.65-17.77,32.65-17.77l-10.74-8.68s-13.37,22.69-17.77,11.58.7-32.18-2.13-37.93a104.72,104.72,0,0,0-8.43-13.22Z"/><path class="cls-35" d="M679.25,450.47l4.52,4.79s6.77,3.47,8,1.25S683.7,447,683.7,447,679.2,449.61,679.25,450.47Z"/><path class="cls-38" d="M627,343.46s4.28,1,6,2.92l1.56-2.73v3.7a25.92,25.92,0,0,1,3.11,2.53c.39.58,1.17-2.33,1.17-2.33a79.31,79.31,0,0,0-1.56,10.5s1-4.28,1.95-4.86,3.5,1.36,1.94,2.92a15.48,15.48,0,0,0-2.14,2.52s-3.31,5.65.78,10.12,3.89,10.7,3.7,16.15A20.42,20.42,0,0,0,647.27,397c1.36,1.75,8.71,9.8,12.91,1.4,4.61-9.23,5.77-5.32,8.4-19.81,1.2-6.6-6.52-14.27-8.47-17.58s-4.28-7-4.47-10.7.39-8.95-2.92-11.48-5.45-6.42-12.26-5.84C636.7,333.28,629.18,335.29,627,343.46Z"/><path class="cls-41" d="M645.6,380.06s0-.07,0-.11l0-.18,0-.38c0-.25,0-.52-.08-.79,0-.53-.08-1.08-.11-1.63,0-1.1-.06-2.22,0-3.33a57.86,57.86,0,0,1,.57-6.69,66.09,66.09,0,0,1,3.29-13,72.45,72.45,0,0,1,5.77-12.13,83,83,0,0,1,7.78-11h0a1.54,1.54,0,0,0-.26-2.12,1.5,1.5,0,0,0-2,0,85.35,85.35,0,0,0-9,10.7,75.64,75.64,0,0,0-7.07,12.25,70.16,70.16,0,0,0-4.63,13.68,64.94,64.94,0,0,0-1.19,7.32c-.12,1.24-.22,2.5-.25,3.78,0,.64,0,1.28,0,1.94,0,.33,0,.66,0,1l0,.52,0,.27,0,.33a4,4,0,0,0,4.11,3.43A3.3,3.3,0,0,0,645.6,380.06Z"/><path class="cls-42" d="M583.64,235.86A51.17,51.17,0,1,0,634.9,317.4l43,27.52c2.83,1.82,10.58,3.4,12.4.56s-3.32-9.22-6.15-11l-36.42-23.31L641.22,307a51.17,51.17,0,0,0-57.58-71.12Zm20.17,91.83a42.85,42.85,0,1,1,32.66-51A42.86,42.86,0,0,1,603.81,327.69Z"/><path class="cls-43" d="M690.24,345.58h0a6.09,6.09,0,0,1-8.42,1.85l-34.73-22.22a6.1,6.1,0,0,1-1.85-8.43h0a6.1,6.1,0,0,1,8.42-1.85l34.73,22.23A6.09,6.09,0,0,1,690.24,345.58Z"/><path class="cls-41" d="M645.6,380.06s0-.07,0-.11l0-.18,0-.38c0-.25,0-.52-.08-.79,0-.53-.08-1.08-.11-1.63,0-1.1-.06-2.22,0-3.33a57.86,57.86,0,0,1,.57-6.69,66.09,66.09,0,0,1,3.29-13,72.45,72.45,0,0,1,5.77-12.13,82.55,82.55,0,0,1,5.4-8c.77-1,4.82-2.78,5.64-3.75l-3.25.77c.5-.61,4.29-6.24,3.64-6.8a5.07,5.07,0,0,0-7.2,3.3c-.3,1-.16,2.86-.86,3.62a84.73,84.73,0,0,0-6.83,8.46,75.64,75.64,0,0,0-7.07,12.25,70.16,70.16,0,0,0-4.63,13.68,64.94,64.94,0,0,0-1.19,7.32c-.12,1.24-.22,2.5-.25,3.78,0,.64,0,1.28,0,1.94,0,.33,0,.66,0,1l0,.52,0,.27,0,.33a4,4,0,0,0,4.11,3.43A3.3,3.3,0,0,0,645.6,380.06Z"/><circle class="cls-33" cx="592.67" cy="259.13" r="10.67"/><path class="cls-33" d="M618.39,266.31a6.14,6.14,0,1,1-6.14-6.14A6.14,6.14,0,0,1,618.39,266.31Z"/><path class="cls-44" d="M422.92,583.81c.25.74.9,3.66-.22,4.81-3.37,3.46-16.73,4.37-18,3.63s-2.43-3.16,2.19-5.1A109.71,109.71,0,0,0,418,581.33Z"/><path class="cls-45" d="M420.76,492.71s-6,90.11-5.27,90.36l9.15,3,15.67-83.43s11.08,89.1,12.07,89.1,7.67.25,7.67.25l1.05-101-5.47-13.36-28.22,3.46Z"/><path class="cls-46" d="M440.31,502.61s11.08,89.1,12.07,89.1,7.67.25,7.67.25l1.05-101-5.47-13.36-19.82,2.64Z"/><polygon class="cls-47" points="371.52 460.57 376.51 461.88 384.38 459.78 384.12 466.61 380.97 469.23 380.45 472.65 376.25 471.86 372.57 471.6 370.73 467.13 369.16 465.03 371.52 460.57"/><path class="cls-37" d="M343.8,418.63c1,.56,8.88,3.41,7.4,14.46S352.46,479,352.46,479l-3.53-.22s-5.93-54.9-6.27-55.58-3.07-5.69-3.07-5.69Z"/><path class="cls-47" d="M351.2,491.17s2.28-5.24,1.26-8.66a26,26,0,0,1-1.14-5.58l-2.17.57s-.68,7.63-.34,8S351.2,491.17,351.2,491.17Z"/><path class="cls-47" d="M323.53,524.77s-1.27,20.08,1.12,30.56,1.5,29.45,1.5,29.45l-.34,2.51s6.37,4.1,7.29,3.3-3.65-6.26-3.65-6.26l3.08-60.82Z"/><path class="cls-47" d="M349,518.81s4.28,5.58,4.06,9,3.13,22.11,5.29,27.34,4.75,29,5,29.54a15,15,0,0,0,.92,3.32c.9,1.46,6.31,1.88,8.29.92,1.68-.8-4.62-2.94-5-4.6-1.29-6.09-5-19.08-6.35-24.26-1.7-6.61-5.92-39.29-5.92-39.29Z"/><path class="cls-48" d="M363.42,585.63s-1.71,4-1,4.55,15.49,5.71,15.75,2.23c.13-1.71-8.12-5.87-8.12-5.87s1.6,2.16.68,2.39S363.42,585.63,363.42,585.63Z"/><path class="cls-48" d="M333.43,499.07c-.35-1.37.08-2.76-1.18-4.12a15.57,15.57,0,0,0-2.31-1.72c-.74-.54-1.42-1.07-2.08-1.64l.15.28a38.75,38.75,0,0,0,4,5.74C332.45,498.12,333,498.58,333.43,499.07Z"/><path class="cls-35" d="M362.05,533.63c-3-16.47-12.56-63.87-12.56-63.87l-22.09-9.34A121.36,121.36,0,0,0,322,477a2.29,2.29,0,0,1,1.94,1.31,34.28,34.28,0,0,0,6.87,8.89c2,1.84,4.49,3,6.15,5.14a11.59,11.59,0,0,1,1.91,4.62l.16.13s10.89,31.56,12.26,42.9c1.28,10.63,7.94,42.17,7.94,42.17l8.12-.35S364.18,545.19,362.05,533.63Z"/><path class="cls-38" d="M327.4,460.42l15.07,1.4,7,7.94s-7.15,9.69-10.46,27.32c-2,10.8-3,32.84-4,43.78-.95,10.63-3.71,42.53-3.71,42.53l-8.64-.89a322.05,322.05,0,0,1-.88-46.22c1.48-26.12-2-54.48-1.26-58C321.93,471.44,327.4,460.42,327.4,460.42Z"/><path class="cls-47" d="M425.34,391.78c0,.79-3.15,17.86,7.35,17.07l1.84,9.45,9.19-2.36.26-14.18s3.94-3.94,1.84-6.56-5-9.19-5-9.19l-15.49-.53Z"/><path class="cls-35" d="M438.47,397.3l1.83,1.57s1.32-4.72,3.16-3.67,2.36,5.77-1.84,7.61l1.84,4.2,3.67-5.25a14.4,14.4,0,0,0,3.15-13.65L424,377.34l-.79,10.51,14.44.52Z"/><path class="cls-47" d="M346.32,392.31s3.41,16.8-5.78,17.06l-2.1,9.72-6.51-2.22-1.1-12.48s-3.94-7.62-2.89-8.4,7.61-5,7.61-5l9.45-2.37Z"/><path class="cls-35" d="M334.76,397s-2.88-3.68-3.93.26,2.1,4.72,2.1,4.72v5.78L329,406.75s-4.2,8.66-9.45,2.89-4.47-15.23,3.15-14.18c0,0-2.89-13.65,7.87-13.39s13.13,2.1,14.71,4.46l-.27,2.1Z"/><polygon class="cls-33" points="437.42 414.89 444.92 412.85 450.02 480 432.43 482.62 432.17 413.84 437.42 414.89"/><polygon class="cls-37" points="444.63 412.85 462.6 416.77 463.93 449.02 463.32 497.59 447.57 495.23 444.63 412.85"/><path class="cls-37" d="M420.53,494.44c1.05,0,13.12,1.31,13.12,1.31l-1.48-81.91s-13.13,5.51-14.44,7.61S405.65,446.92,402.5,449s-19.95,8.66-19.95,8.66L384.38,470s23.37-7.61,26.52-10.5,8.4-13.65,8.4-13.65Z"/><path class="cls-47" d="M466.06,493.74s-4.73,8.14-2.36,8.67,8.4-.53,8.4-1.84,1-6.56,1-6.56Z"/><path class="cls-35" d="M332.93,402s3.38,9.8.1,13.3-12.45,6.76-8.29,14.86,12.25,20.56,5,21-26.25,5-19.47-15.53-3.72-16,1.09-28.67a103,103,0,0,1,12.91-23.19s2-3.28,8.32-1.75.65,7,.65,7l-4.59,4.16-.66,6.56Z"/><path class="cls-36" d="M331.39,415.66s1.4.14,3.12.43l.4.07c.79.15,1.7,2,2.49,2.25s1.5-.57,2-1c.05,0,.13.06.19.09.45.22,10.25,9.9,9.22,13.78l-1,3.87,1.7,34.62-5.2-.44-.57-3.46-5.58-.08-.17,3-14.77-1.24s6.67-14.31,5.76-19.44-7.31-30.19-7.31-30.19Z"/><path class="cls-33" d="M334.89,416.12a102.37,102.37,0,0,1,3.43,25c.36,14.94-.18,24.66-.18,24.66l5.58.18s-.18-22.68-.9-29-3.23-19.48-3.23-19.48A9.09,9.09,0,0,1,334.89,416.12Z"/><path class="cls-37" d="M320.68,418.4c.39-1.9,10.81,1.78,14.16,9.45,9.41,21.54,38.61,32.18,38.61,32.18l-4.29,5s-22.44-9.7-26.4-13.17c-2.73-2.38-15.13-12.77-20.48-22.07C319.87,425.59,319.88,422.27,320.68,418.4Z"/><path class="cls-35" d="M429.76,388.17s-8.31,1.53-9.19.21-6.12-16,4.16-12.9,25.5,5.57,25.55,12.63-9.58,5.74-9.58,5.74L435,388.6Z"/><path class="cls-36" d="M457.43,420.66c.3-1.5,1.71-4.65,3.45-4.53,9.71.64,10.35,31.71,11.22,36s1.83,42.41,1.83,42.41l-9.6.3s-2.8-30-4.53-41.63S457.21,421.74,457.43,420.66Z"/><path class="cls-36" d="M251.55,107.32c1.6.27,8.64,2.79,9.3,8.24s2.66,22.59,2.66,22.59l7-19.67,5.18-.4s-2.79,22.86-9.16,28.7-9.17-4.12-9.17-4.12l-3.32-11.16Z"/><path class="cls-49" d="M274.67,118.88s0-2.66.8-3a26.6,26.6,0,0,0,4.78-3.86c.53-.79,2.52-6.11,1.2-5.84s-5.72,4.38-5.72,4.38.93-2.92.53-3.45-2.65,3.19-2.92,3.85-.93,8.24-.93,8.24Z"/><path class="cls-49" d="M251.38,80.35c.49,1.44,2.06,11.84.89,14.38s-2.05,5.06-6.43,5.5l5.34,12.15L248,124.21l-12-4s-7.5-6.71-7-8.09,8.27-14,8.27-14l3.54-17.77,8.81-1.84L251,80Z"/><path class="cls-38" d="M242.15,85.43s-.89,12.21-3.43,16.25.65,12-2.59,14.42c-2.13,1.58-8.17,10.1-10.31,11.66-3.72,2.71-8.68,1.37-12.86-6.42s-7.1-16.91,9-29.42c0,0-2.79-9.47,2.36-11.33s6.5-2.94,6.5-2.94S233,68,244.88,71.18,254.11,81,254.11,81s6.78,20.25-6.31,25.1l-2-5.89s5.86-1.47,6.43-5.5-.89-14.38-.89-14.38A10.23,10.23,0,0,1,242.15,85.43Z"/><path class="cls-37" d="M246.64,111.84c-2.64,1-5.9-4.84-8.82-8.43,0,0-9.13,5.08-7.95,4.57,0,0-.49,10.77-.77,22.33-.56,23.16-3.56,23.85-3.56,23.85s12.1,2,12.36,1.56,9.73-.63,10-1.69,5.12-17.21,6.72-19.74,3.85-13.28,2.12-16.47-5.18-10.5-5.18-10.5l-4.65-3S250,110.64,246.64,111.84Z"/><polygon class="cls-34" points="278.52 219.65 279.11 227.44 283 227.05 283.39 219.06 278.52 219.65"/><polygon class="cls-34" points="242.43 214.91 239.57 222.17 243.24 223.51 247.07 216.5 242.43 214.91"/><path class="cls-35" d="M277.35,225.29l6.43,1s6.42,4.28,9,4.47,5.06,2.53,2.53,2.92-18.68-.77-18.68-.77Z"/><path class="cls-35" d="M233.22,163.29s34.2,4.48,33.23,14.21,10.13,42.73,10.13,42.73l9.14-.19s-6.44-41.74-6.44-47.58-32-18.71-32-18.71Z"/><path class="cls-35" d="M239,221l6.62,2.53s.39,4.67,2.92,5.26,6.42,2.53,6,4.09-11.68-.78-11.68-.78l-7.4-5.84Z"/><path class="cls-38" d="M225.93,153.93s-7.72,10,.71,15.84c7.12,4.91,28.84,5.58,28.12,7.19-1.55,3.5-16.14,40-16.14,40l8.76,2.15s21.95-31.56,23.32-41.3-24-22.27-24-22.27Z"/><path class="cls-35" d="M264.5,147.9h36a1.6,1.6,0,0,0,1.6-1.59l3.42-25.59a1.6,1.6,0,0,0-1.6-1.6h-36a1.6,1.6,0,0,0-1.6,1.6l-3.41,25.59A1.6,1.6,0,0,0,264.5,147.9Z"/><path class="cls-31" d="M267,147.9h36a1.6,1.6,0,0,0,1.6-1.59L308,120.72a1.6,1.6,0,0,0-1.6-1.6h-36a1.6,1.6,0,0,0-1.6,1.6l-3.41,25.59A1.6,1.6,0,0,0,267,147.9Z"/><path class="cls-35" d="M304,149.91h-63.9a1.26,1.26,0,0,1-1.25-1.25h0a1.26,1.26,0,0,1,1.25-1.25H304a1.26,1.26,0,0,1,1.25,1.25h0A1.26,1.26,0,0,1,304,149.91Z"/><path class="cls-50" d="M290.24,134.11a2.42,2.42,0,1,1-2.37-2.91A2.68,2.68,0,0,1,290.24,134.11Z"/><path class="cls-34" d="M251.1,151c.12,0,.38.09.58.14l.67.11c.45.07.91.12,1.37.15a15.27,15.27,0,0,0,2.71-.08,10,10,0,0,0,2.52-.68,7.54,7.54,0,0,0,2.09-1.41l.1-.1a1.49,1.49,0,0,1,2.08.09,1.47,1.47,0,0,1,.07,1.91,10.58,10.58,0,0,1-2.73,2.48,13.92,13.92,0,0,1-3.32,1.44,18.69,18.69,0,0,1-3.46.59q-.87.06-1.74.06c-.3,0-.59,0-.88,0a9.54,9.54,0,0,1-1-.09l-.14,0a2.35,2.35,0,1,1,.63-4.66A3.06,3.06,0,0,1,251.1,151Z"/><path class="cls-36" d="M234.35,106.92s5.27,2.27,1.18,15.9-9,19.13.36,22.25,18.2,6.12,18.2,6.12l-.6,4.77S222.79,154.15,222,144s4.3-31.13,5.28-33.27S229.05,106.92,234.35,106.92Z"/><path class="cls-49" d="M167,362.72l-.64.34a2.09,2.09,0,0,1-2.82-.88l-8.31-5.59c-.54-1-2-5-1-5.53l8.29,3.12c-2.76-3.6-2-5,2.59.54l2.73,5.18A2.1,2.1,0,0,1,167,362.72Z"/><path class="cls-51" d="M197.51,505.2s.86,8-.61,9.86c-.85,1.11-16.25,1.87-16.83.43s2.74-4.77,6.91-6,3.31-4.6,3.31-4.6Z"/><path class="cls-51" d="M244,496.31s6,6.89,5.26,10-14.77,9.06-14.77,9.06-3.66-2.1.29-6.76c6.33-7.48,4-10.1,4-10.1Z"/><path class="cls-52" d="M190.62,413.58s-5.63,32.29-4,51.52,2.18,41.19,2.18,41.19l10.16.54s2.18-46.63,4-50.8S208,439.16,208,439.16l2.91.91S212,463.29,214.75,468s22.49,33.38,22.49,33.38l7.63-4.54s-16.7-35.38-16.15-37.73.54-39.92.54-39.92l-16.69-2Z"/><rect class="cls-49" x="161.81" y="353.77" width="4.97" height="10.16" rx="2.12" transform="translate(477.2 599.38) rotate(152.15)"/><path class="cls-37" d="M201.71,341.08a44.93,44.93,0,0,0-17.78,31C181.57,393,167.6,358.5,167.6,358.5l-6,4.53s6.17,27.58,17.24,28S201,377.73,201,377.73Z"/><path class="cls-36" d="M204.56,338.61s4.88,3.38,7.76,3.13,6.88-3.63,6.88-3.63A24,24,0,0,1,234.36,352l1.27,4.58-5.06,62.74c1.35,1.15-27,2.17-40.11-3.68-.69-.3,0-.91,0-.91s4.71-55.7,4.71-59.87S196.7,338.87,204.56,338.61Z"/><path class="cls-49" d="M208.06,338.61l.13-3.63s-5.89-1.38-7-5.76-1.63-13.52-1.63-13.52l4.51-6.13,5.63-.5,5.76,5.63,3.88,4.26-.63,5-3.5,7.39.12,6.76,5.64,1.38s.37,6.76-8.14,6-8.89-5.76-8.89-5.76Z"/><path class="cls-49" d="M193.33,384.62h0a2.29,2.29,0,0,0,.28,3.2l4.45,3.73a2.29,2.29,0,0,0,3.2-.28h0a2.29,2.29,0,0,0-.28-3.2l-4.45-3.73A2.29,2.29,0,0,0,193.33,384.62Z"/><path class="cls-53" d="M214.2,332.35c-1.26-1.12,2.75-8.89,2.25-11.77,0,0-2.27-5.48-4-7.36s-10.12,4.23-8.49-.4c0,0-4.15,3.69-3.9,8.82,0,0-5.36-13.9-3.85-16.15s5.12-2.93,14.76-1.56,12.28,8.63,11.9,15.28a12.75,12.75,0,0,1-5.64,9.67Z"/><path class="cls-54" d="M232.69,350.92A10.63,10.63,0,0,0,224,349c-4.88,1.26-3,12.15-3,12.15s7.26,20.53,8.39,27.92c.83,5.47-18-.14-28.88-3.59-1.05-.34-2.22,1.26-2.22,1.26s-1.23,5-1.18,5.06c5.94,6.63,36.75,24.71,42.48,5.58s.23-31.59-4.41-43.24Z"/><polygon class="cls-55" points="210.58 351.62 215.46 355.48 219.02 358.3 217.9 358.39 204.1 347.47 204.02 346.43 206.31 348.24 210.58 351.62"/><path class="cls-56" d="M219.22,401.14a22.32,22.32,0,0,1-4.65-.07l-.32,0-.13,0-.23-2.75.44.06h0a20.48,20.48,0,0,0,2.54.16c.69,0,1.39,0,2.12-.08a25.2,25.2,0,0,0,3.29-.5,21.66,21.66,0,0,0,2.09-.59l.22,2.74a17.13,17.13,0,0,1-2.09.59A21.82,21.82,0,0,1,219.22,401.14Z"/><path class="cls-56" d="M222.48,395.6l-.37.09a24.11,24.11,0,0,1-8,.43l-.24,0h-.08l-.14-.11h0l-.1-1.17-.37-4.56-.18-2.21-1.13-13.63v-.18l0-.32v-.1l-.15-1.79-.25-3.08-.21-2.53v0l0-.29V366l-.15-1.78-.27-3.29-.09-1.1.33,0,.12,0c.53.06,1.09.11,1.66.13l.58,0c.78,0,1.59,0,2.41-.08h0c.58-.05,1.15-.12,1.7-.2l.41-.07c.4-.06.8-.14,1.19-.23.73-.17,1.43-.37,2.08-.59h0l.11,1.28.45,5.47L222,368l.45,5.47,1.14,13.81.18,2.2.38,4.57.09,1.07h0A16.52,16.52,0,0,1,222.48,395.6Z"/><path class="cls-57" d="M219,398.4c-.73.06-1.43.08-2.12.08a20.48,20.48,0,0,1-2.54-.16h0l-.44-.06,0-.31v-.11l-.15-1.78.13,0h.08l.24,0a24.11,24.11,0,0,0,8-.43l.37-.09a16.52,16.52,0,0,0,1.72-.5h0l.16,2,0,.24a21.66,21.66,0,0,1-2.09.59A25.2,25.2,0,0,1,219,398.4Z"/><path class="cls-56" d="M214.3,403.21a3.11,3.11,0,0,0,.44.06h0a22.68,22.68,0,0,0,2.54.15c.68,0,1.39,0,2.12-.08a25.2,25.2,0,0,0,3.29-.5,21.66,21.66,0,0,0,2.09-.59l.22,2.65a22.07,22.07,0,0,1-5.38,1.09,22.49,22.49,0,0,1-5.11-.13l0-.51Z"/><polygon class="cls-31" points="206.1 370.14 208.25 371.84 208.38 373.41 208.66 376.72 206.37 374.91 205.11 373.91 205.14 373.26 205.33 369.53 205.97 370.03 206.1 370.14"/><path class="cls-57" d="M219.41,403.35c-.73.06-1.44.08-2.12.08a22.68,22.68,0,0,1-2.54-.15h0a3.11,3.11,0,0,1-.44-.06l0-.31v-.1l-.14-1.79.13,0,.32,0a22.32,22.32,0,0,0,4.65.07,21.82,21.82,0,0,0,3.29-.5,17.13,17.13,0,0,0,2.09-.59l.15,1.82,0,.15,0,.24a21.66,21.66,0,0,1-2.09.59A25.2,25.2,0,0,1,219.41,403.35Z"/><path class="cls-55" d="M213.89,402.77l-.38-4.57,0-.23,0-.33-.14-1.64,0-.35-.06-.73-.38-4.56-.18-2.2-1.14-13.82-.45-5.47-.19-2.37-.46-5.47-.1-1.28.38.06h0l.09,1.1.27,3.29.15,1.78v.11l0,.29v0l.21,2.53.25,3.08.15,1.79v.1l0,.32v.18L213.05,388l.18,2.21.37,4.56.1,1.17h0v.09l.15,1.78V398l0,.31.23,2.75.14,1.79v.1l0,.31.18,2.15,0,.51-.38-.06-.06-.77Z"/><polygon class="cls-57" points="215.71 358.57 211.1 358.95 206.92 355.65 205.45 354.49 204.63 353.83 202.72 352.32 201.61 351.45 197.3 348.03 202.33 347.62 204.1 347.47 217.9 358.39 215.71 358.57"/><path class="cls-55" d="M204.1,393.34l.55-10.57a8.82,8.82,0,0,1-1.73.66,8.79,8.79,0,0,1-6.3-.73l-.35-.2.31-6,0-.52.17-3.34.35.2a8.8,8.8,0,0,0,3.64,1,8.69,8.69,0,0,0,2.66-.27,8.82,8.82,0,0,0,1.73-.66l0,.32,0,.65,1.26,1,2.29,1.81-.28-3.31-.13-1.57-2.15-1.7L206,370l-.64-.5v-.07l.06-1.13,0-.64-.9-1,1.24,1,2.29,1.81-.28-3.31-.13-1.57-2.15-1.71-.13-.1-1.92-1.52-1.1-.87L198,357l.21,2.5L196.09,357l-.81-9.85.81-.07,1.21.95h0l4.31,3.42,1.1.87,1.92,1.52.82.65,1.47,1.16,4.18,3.3,4.61-.38,2.19-.18,1.12-.09-3.56-2.82-4.88-3.86-4.27-3.38L204,346.43l2.12-.18,6.24,4.93,2.91,2.31,5.86,4.63,0,.73h0c-.65.22-1.35.42-2.08.59-.39.09-.79.17-1.19.23l-.41.07c-.55.08-1.12.15-1.7.2h0c-.82.07-1.63.09-2.41.08l-.58,0c-.57,0-1.13-.07-1.66-.13l-.12,0-.33,0-.38-.06.1,1.28.46,5.47.19,2.37.45,5.47,1.14,13.82.18,2.2.38,4.56.06.73,0,.35.14,1.64,0,.33,0,.23.38,4.57.19,2.27.06.77-5.42-4.29-2.08-1.65-1.11-.87-1.65-1.31.12-2.41Z"/><polygon class="cls-31" points="202.35 360.38 203.45 361.25 205.37 362.77 205.5 362.87 207.65 364.58 207.78 366.15 208.06 369.46 205.77 367.65 204.53 366.66 201.33 363 199.28 360.66 198.24 359.46 198.03 356.96 202.35 360.38"/><polygon class="cls-14" points="197.82 360.84 201.24 364.75 203.74 367.61 202.84 367.56 193.18 356.49 193.22 355.57 194.83 357.41 197.82 360.84"/><path class="cls-55" d="M195,408.07l0,.45a16,16,0,0,0,4,.69,15.54,15.54,0,0,0,4.36-.34l.14-2.67.2-4,0-.21.08-1.73a16.5,16.5,0,0,1-1.71.28,17.72,17.72,0,0,1-2.65.06,16.87,16.87,0,0,1-3.66-.59l-.24-.07-.11,0-.08,1.57v.09l0,.28-.21,4Zm.67-6.14Z"/><path class="cls-14" d="M194.77,405.75l.21-4v-.21l0-.29.07-1.44,0-.31,0-.64.21-4,.1-1.94.63-12.16.25-4.81.1-2.09.25-4.81.06-1.14.29.1.36.11a16.3,16.3,0,0,0,3.65.58,16.48,16.48,0,0,0,2.65-.06,12.87,12.87,0,0,0,1.72-.28l-.06,1.13v.07l-.19,3.73,0-.32a8.82,8.82,0,0,1-1.73.66,8.69,8.69,0,0,1-2.66.27,8.8,8.8,0,0,1-3.64-1l-.35-.2-.17,3.34h0l0,.52-.31,6,.35.2a8.79,8.79,0,0,0,6.3.73,8.82,8.82,0,0,0,1.73-.66l-.55,10.57-.1,1.94-.12,2.41-.09,1.6,0,.95a16.5,16.5,0,0,1-1.71.28,17.72,17.72,0,0,1-2.65.06,16.87,16.87,0,0,1-3.66-.59l-.24-.07-.1-.12v.09l-.08,1.57v.09l0,.28-.21,4-.11,2.23,0,.45-.3-.1,0-.67Z"/><polygon class="cls-57" points="202.84 367.56 201.1 367.47 197.42 367.28 194.49 363.93 193.46 362.75 192.89 362.09 191.54 360.56 190.77 359.67 187.75 356.21 191.76 356.42 193.18 356.49 202.84 367.56"/><path class="cls-56" d="M184.12,396.39l4.48,5.13.78.89,1.46,1.67,3.79,4.34,0-.67.1-2,.21-4v-.21l0-.29.07-1.44,0-.31,0-.64.21-4,.1-1.94.63-12.16.25-4.81.1-2.09.25-4.81.06-1.14.29.1.36.11a16.3,16.3,0,0,0,3.65.58,16.48,16.48,0,0,0,2.65-.06,12.87,12.87,0,0,0,1.72-.28l0-.64-.9-1-3.2-3.66-2-2.34-1-1.2L196.09,357l-1.17-1.34-1.7-.09,1.61,1.84,3,3.43,3.42,3.91,2.5,2.86-.9-.05-1.74-.09-3.68-.19-2.93-3.35-1-1.18-.57-.66-1.35-1.53-.77-.89-3-3.46h0l-.85-1-.65,0Zm1.82-22.05.28-5.34,3.76,4.3,1,1.1,1.67,1.91.11.14,1.88,2.15-.09,1.72-.19,3.61-2-2.28-1.67-1.91-1-1.1Z"/><polygon class="cls-57" points="186.22 369 189.98 373.3 190.94 374.4 192.6 376.31 192.72 376.45 194.6 378.6 194.51 380.32 194.32 383.94 192.33 381.65 190.66 379.74 189.7 378.64 185.94 374.34 186.22 369"/><path class="cls-49" d="M193.61,384.35h0a2.27,2.27,0,0,0,.28,3.19l4.45,3.73a2.27,2.27,0,0,0,3.19-.28h0a2.26,2.26,0,0,0-.28-3.19l-4.45-3.73A2.27,2.27,0,0,0,193.61,384.35Z"/><path class="cls-54" d="M233,350.65a10.6,10.6,0,0,0-8.72-1.92c-4.88,1.25-3,12.14-3,12.14s7.26,20.53,8.39,27.92c.84,5.48-18-.13-28.87-3.59-1.06-.33-2.23,1.26-2.23,1.26s-1.22,5-1.17,5.06c5.94,6.63,36.74,24.72,42.47,5.58s.24-31.59-4.41-43.23Z"/><path class="cls-49" d="M201,391.73l-.64.34a2.1,2.1,0,0,1-2.82-.87l-8.31-5.6c-.54-1-2-5-1-5.53l8.29,3.13c-2.77-3.61-2.05-5.05,2.58.54l2.73,5.17A2.09,2.09,0,0,1,201,391.73Z"/><path class="cls-37" d="M233,350.65a10.6,10.6,0,0,0-8.72-1.92c-4.88,1.25-3,12.14-3,12.14s7.26,20.53,8.39,27.92c.84,5.48-18-.13-28.87-3.59-1.06-.33-2.23,1.26-2.23,1.26s-1.22,5-1.17,5.06c5.94,6.63,36.74,24.72,42.47,5.58s.24-31.59-4.41-43.23Z"/><path class="cls-48" d="M87.14,314.1s1.74,12.45-1.63,15.26S74.46,329,74.46,329Z"/><path class="cls-51" d="M98,485.82a56,56,0,0,0-.22,5.73s16.1.44,17.2-.22,1.76-3.75-2.65-4.41a42.83,42.83,0,0,1-9.92-3.31Z"/><path class="cls-51" d="M70.62,484.72s2.21,5.95,1.33,6.61-10.15,2-10.37.88,4.63-8.38,4.63-8.38Z"/><path class="cls-35" d="M91.87,391.41s13.37,93.53,12.71,93.75-7.94,4-7.94,4L77.07,401.37s-4.46,84.89-5.34,84.89-6.84.22-6.84.22S58.48,422.79,61.33,401c1-7.34,1.27-21.7,1.27-21.7l25.9.38Z"/><path class="cls-35" d="M68.08,389.85l9.85,1.23-6.2,95.18-6.84.22s-3-42.59-4.38-51.71-.44-45.36-.44-45.36Z"/><path class="cls-49" d="M69,315.09s2.39,4.51,2.25,6.9-2.11,11.56-2.11,11.56L78,335.1l3.94-1.27-.56-4.51s2.7-1.74,3.24-2.68c1.58-2.74,2.53-12.54,2.53-12.54l-9.58-8.31-4.65,1.83Z"/><path class="cls-38" d="M69.81,319.88s-3.38-4.51-3.52-6.34-.7-8.88,2.68-10.43,10.71-6.34,14.51-2.82,5.58,4.67,6.71,7.35-1.64,9.42-4.88,8.58-8-6.63-9.16-5.5-2.25,8.74-2.25,8.74-1.27-4.79-1.83-5.36-1.69,2.4-1,3.24.14,4.65.14,4.65Z"/><path class="cls-38" d="M70.47,328.2c.14-.14,2.3,5.49,4.7,5.63s6.2-1.83,6.2-1.83v-2.68s3.1-2.11,3.24-2.68c0,0,9.75,3.85,12.07,9.57,1.48,3.66,3.09,13.62,3.09,13.62l-7.42,2L89.41,368.7,93,397.41s-33.62,4-33.58,2.23c.45-17.41,5.56-28.46,5.56-28.46L63.57,360.5l-.77-8L52.43,356s2.81-15.76,6.19-20.27S70.47,328.2,70.47,328.2Z"/><path class="cls-48" d="M85.76,334c.7-.3,6.72-1.85,6.92-.5s-1,3.68-1,3.68l-5.09,11.47s-5,.2-5.26.2-2.21-.5-1.76-2.06S83.9,335.45,84.41,335A7.55,7.55,0,0,1,85.76,334Z"/><path class="cls-35" d="M86.64,334.91c.7-.3,6.72-1.86,6.92-.5s-1,3.68-1,3.68l-5.08,11.47s-5,.2-5.26.2-2.21-.5-1.76-2.06,4.36-11.38,4.87-11.84A7.55,7.55,0,0,1,86.64,334.91Z"/><path class="cls-49" d="M53.51,355.55s9-3.83,8.67-2.47c-1.32,5.93-4.32,16.16-.62,7.27,1.21-2.93,9.24-17.5,9.24-17.5s.42-4.09,2.82-5.36,9.3-2.54,8.87-1.13-4.5,1.84-4.22,3.53,1,4.36-1.27,5.21l-2.25.85S68.09,373,58,371.73C52.34,371,53.51,355.55,53.51,355.55Z"/><path class="cls-49" d="M93.28,351.68l5.1-1.23s4.64,18.1,1.39,18.72c-6.09,1.16-5.25-1.77-6.8-5.57s-4.59-15.87-5.57-16.71c0,0-6.31-5.88-5.47-8.55s1.55-5.22,2.68-4.23,4.65,6.2,5.78,5.92,2.11-2.12,2.11-2.12a3.9,3.9,0,0,1,.42,3.67c-.84,2-2.39,4.65-2.39,4.65Z"/><path class="cls-38" d="M84,312.7s-11.71-.54-9.7,7.5-2.8,15.16-2.8,15.16,1.27-12.68.83-13.6c-1-2.09-1.3,6.77-1.66,6.44-4-3.62-13.06-6.66-9.7-15.13,4.49-11.29,1.6-6.27,6.55-10.3s11.2-5.24,12.29-3.07S84,312.7,84,312.7Z"/><path class="cls-38" d="M74.65,301.65c-1.69-1.87-3.75-5.43-7.49-7.49s-8.4.14-10.48,5.24c-5.81,14.23,2.8,19.47,8.23,13.86A119.06,119.06,0,0,0,74.65,301.65Z"/><path class="cls-35" d="M62.48,313.44s.37-11.42,9.92-12.91c0,0-5.43-4.31-9.55,1.49A10.39,10.39,0,0,0,62.48,313.44Z"/></g></g></g></svg>